<?xml version="1.0" encoding="utf-8"?>
<!-- Generator: Adobe Illustrator 19.0.0, SVG Export Plug-In . SVG Version: 6.00 Build 0)  -->
<svg version="1.1" id="Layer_1" xmlns="http://www.w3.org/2000/svg" xmlns:xlink="http://www.w3.org/1999/xlink" x="0px" y="0px"
	 viewBox="223 159.8 1041.9 522.1" style="enable-background:new 223 159.8 1041.9 522.1;" xml:space="preserve">
<style type="text/css">
	.st0{fill:#919AA1;}
</style>
<g>
	<path class="st0" d="M464.1,319c0.6,0.3,1.1,0.7,1.7,1c0.9,0.6,1.8,1.2,2.6,1.7c3.6,2.9,7.1,5.9,9.5,9.9c2.1,3.7,3.2,7.5,2.2,11.8
		c-0.3,1.4-0.1,2.9-0.6,4.3c-0.4,1.3-1.1,2.5-2.5,2.9c-0.6,0.2-0.8,0.5-0.9,1c-0.3,1.9-0.7,3.8-1,5.7c-0.1,0.6-0.2,1.1,0.1,1.6
		c1.3,1.7,1.1,3.5,0.2,5.3c-0.1,0.2-0.1,0.5-0.2,0.9c3.5-0.2,6.9-0.3,10.2-0.5c0.1,0,0.2,0,0.3,0c0.4,0,0.9,0,1.3,0
		c0.2,0,0.5,0,0.7,0c0.5,0,1.1,0,1.6,0s1.1,0,1.6,0c1.5,0,2.9,0,4.4,0c0.2,0,0.4,0,0.5,0c0.3,0,0.6,0,0.9,0h0.1h0.1
		c0.7,0,1.4,0,2.1,0c0.2,0,0.4,0,0.7,0c2.4,0.1,4.9,0.2,7.3,0.3c0.5,0,1,0,1.5,0c0.1,0,0.2,0,0.4,0c5.3,0.5,10.6,0.9,15.8,1.8
		c0.7,0.1,0.9,0,0.9-0.7c0-2.7,0-5.4,0-8.2c0-1.7-1.3-0.9-2-0.9c-1.4,0.1-1.7-0.4-1.6-1.7c0-1,0.4-1.3,1.3-1.2s1.6,0.1,1.6-1.2
		c0-1.1-0.4-1.5-1.4-1.3c-0.9,0.1-1.2-0.3-1.1-1.1c0.7-3.2-0.8-5.1-3.5-6.8c-2-1.2-3.8-1.3-6-1.4c-2.9-0.2-5.8-0.4-8.7-0.9
		c-1-0.2-2.1-0.3-3.1-0.6c-0.5-0.1-1.3-0.2-1.3-0.8s0.8-0.7,1.3-0.8c2.5-0.6,5-0.8,7.6-1c1.8-0.1,3.6-0.3,5.5-0.4c0.1,0,0.2,0,0.3,0
		c3.2,0.5,5.2-1.9,7.5-3.3c0.7-0.4,0.3-1.6,0.2-2.4c-0.1-1.2,0.2-1.8,1.5-1.6c1.2,0.2,1.5-0.4,1.4-1.5c-0.1-0.9-0.1-1.8,0-2.7
		c0.1-0.8-0.6-2,0.9-2.4c0.2,0,0.1-0.8,0.1-1.2c0-3.3,0-6.6,0-9.8c0-0.9,0-1.9,1.1-1.9c1.2,0,1.1,1,1.1,1.8c0,3.2,0,6.4,0,9.7
		c0,0.7-0.5,1.6,0.8,1.8c0.1,0,0.2,0.6,0.2,0.9c0,0.9,0.1,1.9,0,2.8c-0.1,1.5-0.3,3,2.1,2.5c0.8-0.2,0.8,0.5,0.7,1
		c-0.5,2.4,0.9,3.4,2.7,4.6c2.8,2.1,5.9,1.6,8.9,1.9c2.9,0.3,5.7,0.5,8.6,1c0.7,0.1,1.3,0.3,1.8,0.7c-0.2,0.3-0.5,0.6-0.7,1
		c-0.2,0-0.4,0-0.7,0.1c-0.2,0-0.4,0.1-0.7,0.1c-0.1,0-0.2,0.1-0.4,0.1c-0.2,0-0.4,0.1-0.6,0.1c-0.5,0-1-0.1-1.5,0.3
		c-0.6,0.1-1.2,0.1-1.9,0.2c-0.8-0.1-1.6,0-2.3,0.3c-0.7,0-1.3,0-2,0.1c-2.6,0.4-5.2-0.2-7.6,1.5c-2.7,1.8-4.5,3.5-3.8,7
		c0.2,0.8-0.2,1.2-1.1,1.1s-1.5-0.1-1.6,1.2c0,1.4,0.7,1.4,1.7,1.3c0.8-0.1,1.2,0.1,1.2,1.1c0.1,1.3-0.2,1.9-1.7,1.8
		c-0.7-0.1-1.9-0.6-1.8,1c0.1,2.9,0,5.9,0,8.8c0,0.4,0,1,0.6,1s0.3-0.6,0.4-0.9c0.1-0.4-0.1-0.8,0.6-0.8c0.6,0.1,0.5,0.5,0.5,0.9
		c-0.1,0.9,0,1.6,0.8,2.2c0.3,0.3,0.2,0.7,0,1.1c-1.2,2-1,6.8,0.3,8.9c0.3,0.4,0.3,0.8,0.3,1.3c0,3.9,0,7.9,0,11.8
		c0,0.5,0,1-0.5,1.3c-0.8,0.6-0.8,1.4-0.8,2.2c0,5.6,0.1,11.1,0,16.7c0,1.4,0.3,2,1.8,1.9c1.4-0.1,1.8,0.4,2,1.8
		c0.3,2.2,0.2,4.6,1.2,6.7c2.3,4.9,4.7,9.8,7.1,14.6c0.3,0.6,0.6,1.1,0.9,1.7c0,0.1,0.1,0.2,0.1,0.3c0.1,0.1,0.1,0.2,0.2,0.4
		c3.6,7.4,7.2,14.8,10.8,22.2l0,0c0.1,0.1,0.1,0.3,0.2,0.4c0.5,1,1,2,1.5,3.1c0.4,1,0.8,2,1.5,3c0.5,1.1,1.1,2.3,1.6,3.4
		c3.8,7.8,7.6,15.6,11.4,23.5c0.3,0.7,0.7,1.4,1,2.1c0.4,1,0.8,1.9,2.1,2c0.2,0,0.4,0.1,0.6,0.3c1.8,1.9,3.9,3.6,5.5,5.8
		c0.2,1.2,0,2.4-1.1,3c-1.3,0.7-2.4,0.3-3.4-0.8c-0.7-0.8-1.5-1.5-2.2-2.2c-1.5-1.5-2.3-3.3-3.2-5.2c-6.9-14.6-14.1-29.1-21.2-43.6
		c-0.5-1.1-1.1-1.4-2.3-1.4c-2.1,0.1-4.1,0-6.2,0c-0.8,0-1.2,0-1,1.1c0.8,4.1,1.2,8.4,2.5,12.4c0.8,2.5,1.5,5,2,7.6
		c0.3,1.6-0.3,2.7-1.6,3c-1.2,0.3-2.4-0.5-2.6-2.1c-0.4-2.4-1.5-4.7-0.7-7.3c0.3-1-0.3-2.3-0.5-3.4c-0.6-3.3-1.2-6.5-1.8-9.8
		c-0.1-0.5,0.1-1.5-1-1.4c-1.1,0.1-0.6,1.1-0.6,1.6c0,12.2,0,24.3,0,36.5c0,1.4-0.4,2-1.8,2.1c-1.3,0.1-2.6,0.6-3.9,0.9
		c-0.1-0.1-0.2-0.1-0.3-0.1c0-0.4-0.1-0.7-0.1-1.1c-0.4-1-1.1-1.1-2.1-0.2c-0.8,0.1-1.7,0.1-2.5,0.2c-0.1,0-0.2-0.1-0.4-0.1
		c-0.1-0.5-0.2-1-0.3-1.5c0.2-0.1,0.1-0.3,0-0.5c0-0.4,0-0.9,0-1.3c-0.5-0.8-1.4-0.7-2.2-0.9c-7.1-2-14.1-4-21.2-6
		c-0.9-0.3-1.6-0.3-2,0.7c-0.2,0.6-0.6,1.1-0.9,1.6c-1.3,2-1.3,2-3.3,1c-0.5-0.4-0.8-0.7-0.3-1.3c0.5-0.7,0.9-1.5,1.4-2.2
		s0.4-1-0.5-1.3c-1.2-0.4-1.6-0.2-1.5,1.1c0.1,0.9-0.1,1.8,0.1,2.6c0.2,1-0.3,1.3-1.1,1.4c-1.1,0-2.2,0-3.3,0
		c-0.4-0.2-0.9-0.1-1-0.6c0-5.5,0-11,0-16.6c-0.6,0.2-0.6,0.7-0.6,1.2c-0.8,7.9-1.6,15.8-2.3,23.7c-0.4,3.6-0.7,7.2-1,10.8
		c-0.1,0.8-0.1,1.5,0.4,2.2s0.3,1.6,0.2,2.4c-0.2,2-0.4,4.1-0.6,6.1c-0.2,1.6-1,2.6-2.3,2.5c-1.3-0.1-2.1-1.1-2-2.7
		c0.2-2.5,0.4-5,0.7-7.5c0.2-1.4,1.4-2.3,1.5-3.9c0.7-8.4,1.6-16.8,2.4-25.2c0.2-1.6,0.3-3.1,0.1-4.8c-2.6,3.9-5.3,7.9-7.9,11.8
		c-1.6,2.3-3.2,4.6-3.8,7.5c-0.1,0.7-0.5,0.8-1.1,0.8c-0.6,0-1.2,0.1-1.8,0.1c-0.7,0-1.9,0.6-2.1-0.1c-0.3-0.9-0.6-2.3,0.3-3.2
		c7.4-7.5,12-17,18.2-25.4c1.4-1.9,2.1-3.8,1.9-6.1c-0.1-1.7,0-3.4,0-5.1c-0.4-0.2-0.5,0.1-0.7,0.3c-6.3,6.9-12.7,13.8-18.9,20.8
		c-1.9,2.2-3.4,4.8-5.3,7.1c-4.3,5.4-9.6,9.7-15.9,12.7c-1.9,0.9-2.1,2.9-3,4.4c-0.4,0.6,0.6,0.9,1.1,1.3
		c5.9,4.7,11.8,9.3,17.7,13.9c3.9,3.1,7.8,6.2,11.8,9.3c0.3,0.2,0.6,0.7,0.9,0.7c3-0.1,4.4,2.5,6.5,3.9c1.1,0.7,1.2,1.9,0.4,2.9
		c-0.8,1.1-2,1.3-3.1,0.4c-1.5-1.1-3.3-2-4.2-3.5c-2.7-4.5-7.3-6.6-11-9.8c-3.7-3.2-7.7-6.1-11.6-9.2c-3-2.3-5.9-4.7-8.9-7
		c-0.7-0.6-1.1-0.5-1.6,0.3c-8.8,13.4-21.1,21.8-36.9,24.8c-12.4,2.3-24.4,0.5-35.9-4.6c-11.1-5-20.2-12.4-27.5-22.1
		c-0.8-1.1-1.3-1.3-2.5-0.5c-4,2.8-8.1,5.5-12.1,8.2c-0.5,0.3-1,0.6-1.1,1.3c-0.1,0.7-0.7,1.1-1.2,1.5c-1.3,0.8-2.5,1.7-3.7,2.5
		c-1.4,0.9-2.6,0.8-3.4-0.3c-0.7-1.1-0.4-2.3,0.9-3.3c1.2-0.9,2.5-1.7,3.7-2.5c0.6-0.4,1.3-0.9,2.2-0.6c0.5,0.2,0.8-0.1,1.2-0.4
		c4.3-2.9,8.6-5.8,12.9-8.6c0.7-0.5,0.8-0.8,0.3-1.5c-6.7-10.2-10.8-21.4-12.1-33.6c-0.1-0.9-0.3-1.1-1.2-1.1
		c-3.7,0.1-7.3,0.1-11-0.2c-0.8-0.1-1.2,0.2-1,1c0.9,4-1,6.2-4.6,7.3c-0.4,0.1-0.8,0.4-1.1,0.7c-0.4-0.1-0.7,0.2-1,0.4
		c-0.4,0.2-0.7,0.3-1.1,0.5c-0.8,0.3-1.4,0.5-0.8,1.8c0.7,1.6,0.5,3.6,0.1,5.4c-0.3,1.5-1.8,1.7-3.9,0.8c0,1.6-0.1,3.2,0,4.7
		c0.1,1.7-0.4,3.2-1.3,4.7c-2.6,4.3-5.1,8.6-7.6,12.8c-0.6,1-0.8,1.9-0.4,3.3c0.7,2.4,0.4,5.1,0.1,7.6c-0.1,1.1-1.1,1.6-2.2,1.5
		c-1.3-0.1-1.9-0.9-2-2.1c-0.1-2-0.1-4-0.1-6c0-0.3,0-0.7,0-1c2-2.7,2.9-6,4.9-8.7c0-0.1,0.1-0.2,0.1-0.3c0.7-0.8,1.2-1.7,1.6-2.7
		l0,0c0.1-0.1,0.1-0.2,0.2-0.3c0.1-0.1,0.1-0.2,0.2-0.3c0.3-0.3,0.5-0.6,0.6-1c1.2-1.6,2.1-3.4,3.1-5.1c0.3-0.5,0.4-1,0.4-1.6
		c-0.2-7.5-0.4-15-0.6-22.5c-0.1-3.3-0.2-3.3-3.5-3.9c-0.8-0.3-1.6-0.6-2.3-0.8c-0.2-0.1-0.4-0.1-0.6-0.2l0,0
		c-0.4-0.2-0.7-0.3-1.1-0.5c-0.5-0.2-0.9-0.5-1.4-0.7c-1.4-1.2-3.2-2.1-2.4-4.5c0.2-0.5-0.4-0.7-0.8-0.9c-0.1-0.1-0.1-0.2-0.2-0.3
		c-1.5-2.4-1.4-3.3,0.6-5.7c0.1,0,0.1,0,0.1-0.1c0.5-0.4,1.1-0.6,1.1-1.5c-0.2-7-0.3-14-0.7-21c0-0.6,0-1.1,0-1.7c0-3,0.1-6-0.3-9
		c0-0.4,0-0.9-0.1-1.3c0-0.7,0-1.3,0-2c0-1.5-0.1-2.9-0.1-4.4c0.1-1,0.1-2.1-0.2-3.1c0-1-0.1-2.1,0-3.1c0.1-1.6-0.1-2.8-1.9-3.4
		c-0.9-0.3-1.5-1.1-1.4-2.2c0.3-0.7,0.5-1.4,0.6-2.2c0.1-0.1,0.1-0.2,0.1-0.3c0.3-0.9,0.6-1.8,0.9-2.7c0.3-0.6,1-0.7,1.4-1
		c1.1-0.1,2-0.6,3-0.9c16.9-3.5,34-3.7,51.2-3.3c1.6,0,3.1,0.1,4.7,0.2c-0.2-0.7-0.9-0.7-1.4-0.9c-5.5-2.6-10.7-5.7-15-10
		c-3.3-3.2-6-6.8-6-11.6c0-0.5-0.2-1-0.3-1.4c-0.1,0-0.3-0.1-0.3,0c-0.5,0.4-0.8,1.3-1.6,0.9c-0.7-0.4-0.6-1.2-0.6-1.9
		c0-1,0.3-2,0.8-2.9c0.8-1.6,1.7-3.2,2.5-4.9c0.7-1.3,1.7-2.5,0.3-4c-0.4-0.4-0.1-0.8,0.1-1.3c1.2-3.5,2.3-6.9,3.5-10.4
		c0.3-0.8,0.6-1.6,1.7-1.3c0.8,0.2,0.8-0.4,0.9-0.9c0.9-2.4,2.2-4.8,2-7.5c0-0.6,0.5-0.8,0.9-1.2c1-1.1,1.8-2.2,3.5-1.3
		c0,0,0.2-0.2,0.3-0.4c4.6-5.7,10.9-7.8,17.8-8.6c13.2-1.5,25.4,1.8,36.7,8.5c0.5,0.3,0.8,0.7,1.6,0.7c0-0.7,0-1.4,0-2.1
		c0-5.3,0-10.7,0.1-16c0-1.1-0.3-1.8-1.1-2.6c-6.5-5.8-12.9-11.6-19.3-17.4c-0.9-0.8-1.9-1.6-1.6-3.1c0.2-0.9-0.5-0.9-1.1-0.9
		c-5.8,0.1-11.7-0.3-17.4-1c-4.5-0.6-8.9-1.4-13.1-3c-0.8-0.3-1.6-0.7-2.4-1.2c-2.7-1.7-2.7-3.7,0-5.4c1.9-1.2,4-1.9,6.2-2.4
		c7.4-1.9,15-2.6,22.6-2.7c2.1,0,2,0,1.1-1.8c-0.4-0.8-1.7-1.9-0.3-2.7c1.4-0.8,1.6,0.9,2.2,1.6c0.2,0.2,0.3,0.4,0.8,1.1
		c0.9-1.1,1.7-2,2.5-3c0.5-0.6,1.1-0.8,1.7-0.2c0.6,0.6,0.4,1.2-0.2,1.7c-1,0.9-1.9,1.8-2.9,2.7c0.7,0.7,1.4,0.5,1.9,0.5
		c7.7,0.1,15.4,0.8,22.9,2.7c1.8,0.5,3.5,1.1,5.1,1.9c1.2,0.6,2.3,1.4,3,2.5c0,0.4,0,0.9,0.1,1.3c-1,1.8-2.7,2.7-4.6,3.4
		c-6.2,2.4-12.7,3-19.2,3.6c-1.7,0.1-3.3,0.1-5,0.3c-0.6,0.1-1.4-0.5-1.7,0.5c-0.2,0.8,0.2,1.3,0.8,1.8c2.1,1.8,4,3.6,6.1,5.5
		c4.6,4.2,9.3,8.4,14,12.6c0.9,0.8,1.2,1.6,1.2,2.7c-0.1,6.5-0.1,13-0.2,19.5c0,0.9,0.2,1.6,1,2.1c1.9,1.2,3.5,2.8,5,4.4
		c1.3,1.5,2.6,3.2,3.6,5c0,0.1,0.1,0.2,0.1,0.3c0.1,0.2,0.3,0.5,0.4,0.7c0.5,1.1,0.8,2.3,1.7,3.4c0.5-1.8,0.9-3.5,1.4-5.1
		c0.4-0.9,0.9-1.8,0.8-2.8l0,0c0.9-1.1,1.7-2.3,2.6-3.4c0.1-0.1,0.2-0.2,0.3-0.3c1.7-1,2.5-2.6,2.5-4.5c0-3,0.9-5.6,3.3-7.6
		c0.6-0.5,1.3-1.3,1.9,0.1c0.2,0.5,0.5,0.2,0.8,0c1.5-1.1,3.2-1.9,4.9-2.7l0,0c4.1-1.4,8.3-1.9,12.6-2.1c0.2,0,0.4,0,0.7,0
		c0.4,0,0.9,0,1.3,0c0.2,0,0.4,0,0.6,0c5.6,0.6,11.1,1.7,16.3,3.7c0.5,0.2,1.1,0.4,1.6,0.6c0.3,0.4,0.7,0.3,1.1,0.3l0,0
		c0.2,0.4,0.6,0.6,1,0.6c0.9,0.5,1.8,0.9,2.7,1.4C463.6,319,463.8,319,464.1,319z M516.4,410.6c-0.2,0.1-0.4,0.1-0.6,0.2
		c-4.3,0.1-8.6-0.4-12.9-1c-1-0.1-1.6,0.1-1.7,1c-0.2,1.6-1.2,1.7-2.5,1.4c-0.4-0.1-1.1-0.5-1.3,0.1c-0.6,2-2.1,1.4-3.5,1.1
		c0,0.5,0,0.8,0,1.1c0,12.7,0,25.4,0,38.1c0,0.2,0,0.4,0,0.7c0,0.8,0.6,1.3,1.2,1.5c0.4,0.2,0.7-0.6,1-1c2.3-3.4,4.5-6.7,6.8-10.1
		c3.7-5.6,7.4-11.2,11.2-16.7c0.1-0.2,0.3-0.4,0.4-0.6c1.2-1.5,2.3-3.1,3.3-4.8c0.7-1.1,1.4-2.1,2.1-3.2l0,0c0.5-0.5,0.8-1,0.9-1.7
		c0.2-2.8,0.2-2.8,3.1-2.7c0.2,0,0.3,0,0.5,0c0.8,0.1,1.1-0.2,1.1-1c0-2.2-0.1-4.4,0-6.7c0-1-0.3-0.9-1.1-0.8c-2.8,0.5-5.6,1-6.8,4
		C517,410.1,516.6,410.3,516.4,410.6z M334.1,355c-1.6,0.1-3,0.8-4.4,1.5c-4,2.2-5.1,5.7-3,9.8c1.5,2.9,3.7,5.2,6.3,7.1
		c0.3,0.3,0.6,0.6,1,0.9c14.2,9.8,29.9,14.6,47.3,13.9c3.3-0.1,6.6-0.9,9.5-2.8c2.8-1.8,3.9-4.6,3.1-7.6c-0.4-1.4-1.1-2.7-1.9-3.8
		c-2.3-3.2-5.3-5.7-8.6-7.8c-11.1-7.1-23.4-11-36.5-12.2c-3.9-0.4-7.9-0.4-11.7,0.6C334.7,354.7,334.4,354.7,334.1,355z
		 M441.8,358.8c-0.4-0.1-0.7-0.2-1.1-0.4c-7.3-2.4-14.8-3.8-22.6-3.1c-3.2,0.3-6.4,1-9,3c-2.4,1.8-3.3,4.3-2.4,7.2
		c0.8,2.8,2.5,4.9,4.6,6.8c8.4,7.6,18.5,11.6,29.4,13.6c0.6,0.2,1.3,0.4,2,0.3c0.5,0.1,1.1,0.2,1.6,0.3c1.9,0.2,3.8,0.5,5.7,0.4
		c0.8,0,1.6,0,2.3,0c3.7-0.1,7.3-0.7,10.5-2.7c3.2-2,4.2-5.2,2.6-8.6c-1.6-3.7-4.4-6.4-7.8-8.7c-0.5-0.6-1.2-1-1.9-1.3
		c-0.4-0.5-0.9-0.8-1.4-0.9c-1.5-1.1-3.2-2-5-2.7c-1-0.7-2.2-1.1-3.4-1.6c-0.1,0-0.2-0.1-0.3-0.1c-1.2-0.7-2.4-1.1-3.7-1.4
		C442,358.9,441.9,358.9,441.8,358.8z M520.8,453.4c-0.5-0.4-1.2-0.3-1.8-0.3c-5.4-0.9-10.8-1.7-16.2-2.6c-0.8-0.1-1.1,0.4-1.4,0.9
		c-1.2,1.7-2.3,3.4-3.4,5.1c-0.5,0.7-0.5,1.1,0.1,1.8c9.5,9.4,19,18.8,28.5,28.2c0.7,0.7,1.2,0.7,2.1,0.4c1-0.3,0.7-1,0.7-1.6
		c0-7.9,0-15.9,0-23.8c0-3,0-3.1-3-3c-1,0-1.4-0.1-1.4-1.3c0-3.4,0-3.4-3.5-3.8C521.3,453.4,521.1,453.4,520.8,453.4z M438.1,435.1
		c-0.2-0.6-0.5-1.2-1-1.6c-1.7-3.3-3.9-6.2-6.3-9c-11.7-13.6-26.1-22.2-44.4-22.8c-17.1-0.6-31,6.2-41.3,19.8
		c-8.8,11.7-12.2,25.1-11,39.5c1.7,22.7,11.9,40.9,30.7,53.9c11.5,8,24.4,11.7,38.5,9.7c17.3-2.4,29.9-11.8,37.8-27.2
		c6.2-12,7.7-24.9,5.6-38.2C445.3,450.6,442.5,442.5,438.1,435.1z M472.7,468.4c5.2-5.7,10.3-11.3,15.5-17c0.3-0.4,0.4-0.8,0.4-1.2
		c0-8.7,0-17.4,0-26.1c0-0.9-0.3-1-1.1-0.8c-5.5,0.9-11.1,1.1-16.7,1.4c-1.4,0.1-1.4,0.4-0.9,1.5c3.1,6.9,4.9,14.2,5.3,21.8
		C475.4,454.9,474.6,461.7,472.7,468.4z M455.9,400.5c-1.5-0.5-1.8-0.7-1.8-1.3c-0.1-1,0.7-1.3,1.4-1.7c0.4-0.2,0.9-0.4,1.4-0.5
		c0.7-0.1,1-0.5,1-1.2c0.1-2.8,0.1-2.8-2.6-3.7c-0.4-0.1-0.7-0.3-1.1-0.3c-0.6-0.1-1-0.5-1-1.1c0-1-0.6-1-1.3-0.9
		c-12.4,0.3-23.9-3-34.5-9.4c-3.4-2-6.4-4.5-9.2-7.3c0.4,4.2-0.6,8.4,0.4,12.6c0.4,1.9,0.6,3.4,2.3,4.4c0.1,0.1,0.3,0.2,0.3,0.4
		c0.5,1.1,1.4,1.2,2.5,1.1c13.5-1.2,25.6,2.6,36.6,10.4c0.8,0.6,1.6,1.2,2.4,1.8c1,0.7,1.8-0.1,2.7-0.3c0.4-0.1,0.4-0.4,0.2-0.6
		C454.8,401.9,455.5,401.3,455.9,400.5z M362.7,389.6c-1.7-0.4-2.9-0.7-4.1-1.1c-4.4-1.1-8.6-2.6-13.3-2.7
		c-12.6-0.2-25.1-0.2-37.6,0.7c-5.8,0.4-11.6,0.8-17.3,2.3c-0.9,0.2-2.4,0.3-2.4,1.4s1.5,1.1,2.4,1.3c5.8,1.3,11.7,1.5,17.5,1.6
		c14.5,0.4,29,0.2,43.4-1.3C355.1,391.3,358.8,390.9,362.7,389.6z M504.2,447.2c0.2,0.1,0.4,0.2,0.5,0.2c6.4,1,12.8,2,19.2,3
		c1.2,0.2,1.1-0.5,1.1-1.2c0-9.2,0-18.4,0-27.7c0-0.9-0.2-1.3-1.2-1.7c-1-0.4-1.4,0.1-1.8,0.8c-2,3-4.1,6.1-6.1,9.1
		C512,435.6,508.1,441.4,504.2,447.2z M393.3,386.9c-8.6,5.1-17.5,4.4-26.4,3.4c0.1,1.4,1.1,2.7,0.4,3.8c-0.8,1.3-0.6,2.7-0.8,4
		c-0.1,0.9,0.2,1,1,0.7c7.6-2.4,15.3-3.1,23.1-2.2c0.8,0.1,1.1-0.2,1.1-1c0-1.5,0-3,0-4.5c0-0.4-0.1-1,0.2-1.1
		C394.2,389.7,392.5,388.1,393.3,386.9z M507.3,471.6c-2.1,3.4-4,6.7-6,9.8c-0.7,1.1-0.3,1.3,0.7,1.6c5.7,1.6,11.4,3.2,17.1,4.7
		c1.8,0.5,3.5,1.2,5.2,1.3C518.6,483.3,513,477.5,507.3,471.6z M493.7,471.6L493.7,471.6c0,2.2,0,4.3,0,6.5c0,2.6,0,2.6,2.6,3.3
		c0.8,0.2,1.3,0.1,1.7-0.7c2-3.5,4.1-6.9,6.2-10.4c0.5-0.8,0.4-1.2-0.2-1.8c-2.3-2.2-4.5-4.4-6.8-6.6c-1.8-1.7-2.6-1.5-3.4,0.9
		c-0.1,0.4-0.1,0.9-0.1,1.3C493.7,466.6,493.7,469.1,493.7,471.6z M546.8,452.1c-2.3-4.8-4.6-9.5-6.9-14.1c-1.5-3-3-6.1-4.5-9.1
		c-0.2-0.3-0.3-0.9-0.7-0.7c-0.5,0.2-0.2,0.7-0.1,1.1c0.3,1.3,0.6,2.7,0.8,4.1c1.1,5.9,2.2,11.8,3.3,17.7c0.1,0.7,0.3,1.2,1.2,1.2
		C542.1,452.1,544.3,452.1,546.8,452.1z M301.1,475.1c0.3,0.1,0.5,0.2,0.8,0.3c0.9-3.6,4.3-3.7,6.6-5.2c0.2-0.1,0.4-0.2,0.6-0.3
		c2.7-0.7,3.5-2.4,3.1-5.1c-0.1-0.9-0.3-1.2-1.2-1.3c-2.9-0.2-5.8-0.5-8.7-1.1c-0.9-0.2-1.1,0.2-1.1,1
		C301.1,467.3,301.1,471.2,301.1,475.1z M531.1,424.9c-0.1,0-0.2,0-0.3,0c0,7.7,0,15.3,0,23c0,4.3,0,4.3,4.3,4.2c0.8,0,1-0.1,0.8-1
		c-0.6-2.7-1-5.4-1.5-8.2C533.3,436.9,532.2,430.9,531.1,424.9z M529.7,375.1c0-0.8,0-1.6,0-2.3c0-0.4,0.3-1-0.4-1
		c-0.6,0-0.8,0.4-0.8,1c0,1.7,0,3.4,0,5.2c0,0.3-0.2,0.8,0.5,0.8c0.6,0,0.8-0.3,0.8-0.8C529.7,377,529.7,376,529.7,375.1z"/>
	<path class="st0" d="M494.4,488.7c0,0,0.1,0,0.1,0.1C494.5,488.8,494.5,488.7,494.4,488.7L494.4,488.7z"/>
	<path class="st0" d="M539.3,332.1c0-0.1-0.1-0.2-0.1-0.3c0,0,0.1-0.1,0.2-0.1c0,0,0.1,0.1,0,0.1C539.4,331.9,539.3,332,539.3,332.1
		z"/>
	<path class="st0" d="M496,364.6c-0.2,0-0.4,0-0.5,0C495.6,364.6,495.8,364.6,496,364.6z"/>
	<path class="st0" d="M416.2,306.8c0-0.1,0-0.1,0-0.2h0.1C416.3,306.7,416.3,306.7,416.2,306.8z"/>
	<path class="st0" d="M404.4,278.4c-0.1,0.1-0.2,0.2-0.3,0.3C404.2,278.6,404.3,278.5,404.4,278.4z"/>
	<path class="st0" d="M478.7,331.4l-0.1,0.1l-0.1-0.1l0.1-0.1C478.6,331.3,478.7,331.4,478.7,331.4z"/>
	<path class="st0" d="M485.8,364.7c-0.1,0-0.2,0-0.3,0C485.5,364.5,485.6,364.5,485.8,364.7z"/>
	<path class="st0" d="M554.9,462.3c0.1,0,0.2,0,0.4,0c0,0.1-0.1,0.2-0.1,0.4C555.1,462.6,555,462.5,554.9,462.3z"/>
	<path class="st0" d="M295.1,495.7c0.1-0.1,0.1-0.2,0.2-0.3C295.2,495.5,295.1,495.6,295.1,495.7z"/>
	<path class="st0" d="M543.9,439.7c0.1,0,0.2,0,0.2,0c0,0.1,0,0.2,0,0.3C544,440,543.9,439.8,543.9,439.7z"/>
	<path class="st0" d="M512,412.1h-0.1V412h0.1C512,412.1,512,412.1,512,412.1z"/>
	<path class="st0" d="M518.3,418.5h-0.1v-0.1h0.1C518.3,418.4,518.3,418.4,518.3,418.5z"/>
</g>
<g>
	<g>
		<path class="st0" d="M724.2,363.5c4.6,0,8.9,0.7,12.8,2.2c4,1.5,7.4,3.7,10.3,6.6c2.9,2.9,5.2,6.6,6.8,11s2.5,9.6,2.5,15.5
			c0,5.2-0.7,10-2,14.4s-3.4,8.2-6.1,11.4c-2.7,3.2-6.1,5.7-10.1,7.5s-8.8,2.8-14.3,2.8h-30.8v-71.4H724.2L724.2,363.5z
			 M723.1,421.7c2.3,0,4.5-0.4,6.6-1.1s4-2,5.7-3.7s3-3.9,4-6.6s1.5-6.1,1.5-10c0-3.6-0.4-6.9-1-9.8c-0.7-2.9-1.9-5.4-3.5-7.4
			c-1.6-2.1-3.7-3.7-6.4-4.8c-2.6-1.1-5.9-1.7-9.8-1.7H709v45h14.1V421.7z"/>
		<path class="st0" d="M806,363.5c3.2,0,6.1,0.5,8.6,1.5c2.6,1,4.8,2.5,6.6,4.3c1.8,1.8,3.2,3.9,4.2,6.3s1.4,4.9,1.4,7.6
			c0,4.2-0.9,7.8-2.6,10.9c-1.8,3.1-4.6,5.4-8.6,7v0.2c1.9,0.5,3.5,1.4,4.8,2.5s2.3,2.4,3.1,3.9s1.4,3.1,1.8,5
			c0.4,1.8,0.6,3.6,0.8,5.4c0.1,1.1,0.1,2.5,0.2,4c0.1,1.5,0.2,3.1,0.4,4.7s0.4,3.1,0.8,4.6c0.4,1.4,0.9,2.6,1.6,3.6h-15.7
			c-0.9-2.3-1.4-5-1.6-8.1c-0.2-3.1-0.5-6.1-0.9-9c-0.5-3.7-1.7-6.5-3.4-8.2c-1.7-1.7-4.6-2.6-8.5-2.6h-15.7V435h-15.7v-71.4H806
			V363.5z M800.4,395.8c3.6,0,6.3-0.8,8.1-2.4c1.8-1.6,2.7-4.2,2.7-7.8c0-3.5-0.9-6-2.7-7.6s-4.5-2.4-8.1-2.4h-17.2v20.2H800.4z"/>
		<path class="st0" d="M892.2,429.4c-5.4,4.7-12.9,7.1-22.4,7.1c-9.7,0-17.1-2.3-22.5-7c-5.3-4.7-7.9-11.9-7.9-21.6v-44.4h15.7v44.4
			c0,1.9,0.2,3.8,0.5,5.7s1,3.5,2.1,4.9c1.1,1.4,2.6,2.6,4.5,3.5s4.4,1.4,7.6,1.4c5.6,0,9.5-1.3,11.6-3.8s3.2-6.4,3.2-11.8v-44.4
			h15.7v44.4C900.3,417.6,897.6,424.7,892.2,429.4z"/>
		<path class="st0" d="M935.9,363.5l16.7,49.1h0.2l15.8-49.1h22.1v71.4H976v-50.6h-0.2l-17.5,50.6h-12.1l-17.5-50.1h-0.2v50.1h-14.7
			v-71.4L935.9,363.5L935.9,363.5z"/>
	</g>
	<g>
		<path class="st0" d="M1151.3,448.2c-9.4,5.4-20,6-30.2,3.5c-17-4.1-33.7-9.7-50.7-14.2c-12.6-3.3-25.4-5.8-39.8-9
			c4.4-3.1,7.3-5.8,10.7-7.5c16.9-8.5,33.6-17.2,50.9-24.9c22.5-10,41.5-24.6,57.8-42.8c2.1-2.3,3.4-5.3,5.9-9.5
			c-7,0.6-11.9,1.3-16.8,1.4c-24.4,0.4-48.1-3.7-71.5-10.1c-12.7-3.5-25.8-5-38.1-0.6c-15.7,5.6-30.6,13.5-45.7,20.6
			c-1,0.5-1.2,2.4-2.7,5.4c7-2.2,12.3-4.4,17.8-5.4c18-3.3,36-3,53.9,1.1c17.8,4.1,35.7,7.5,55.4,11.6c-5.5,4.1-9.6,8.2-14.6,10.6
			c-24.8,11.9-49.9,23.3-74.8,34.9c-11.4,5.3-23.3,9.7-33.8,16.4c-8,5.1-14.2,13-21,20c-1.2,1.2-1,3.8-1.4,5.8
			c1.9,0.3,3.8,1,5.7,0.9c8.6-0.6,17.3-1.8,25.9-2c35.3-0.6,69.2,7.7,103.1,16.2c8.3,2.1,17.1,3.2,25.6,3
			c14.3-0.4,25.6-7.3,35.5-16.7c-1.3-1.8-2.2-4-3.4-5.9C1153.7,450.2,1152.4,449.2,1151.3,448.2z"/>
	</g>
	<g>
		<path class="st0" d="M640.3,433.8c-21.8-1.8-43.1-7-64.4,1.2c-0.7-0.6-1.3-1.2-2-1.8c4-6.1,7.6-12.5,12-18.3
			c12.8-16.7,26.6-32.7,38.7-49.9c7.3-10.3,11.4-22.7,18.4-33.2c4.5-6.6,11.7-11.4,17.7-16.9c1.1,0.8,2.2,1.6,3.3,2.5
			c-1.5,4.5-2.2,9.7-4.8,13.5c-14.4,21.4-29.1,42.5-43.9,63.6c-4.5,6.5-9.6,12.6-15.8,20.8c14.9,0.7,27.7,1.5,40.6,1.7
			c1.2,0,3.6-3.2,3.6-5c0.2-8-0.3-15.9-0.4-23.9c0-2.1,0.1-5.3,1.3-6c6.7-3.8,13.6-7.3,20.7-9.9c1.2-0.4,6,3.9,6,6.1
			c0.2,10.3-0.3,20.7-1.4,31c-1,9.7,0.4,11.8,10.3,10.2c5.5-0.8,10.8-2.6,17-4.1c-1.5,9.3-8.6,11.9-15.1,14.6
			c-7.4,3.1-18,1.8-16.6,14.8c0.8,8.3,0.7,16.6,1.2,27.6c-4.7,1.9-12.1,5.4-19.8,7.7c-5.9,1.8-8.2-2.7-8.1-7.6
			c0.2-9.2,1-18.3,1.5-27.5C640.5,441.8,640.3,438.5,640.3,433.8z"/>
	</g>
</g>
</svg>
