<?xml version="1.0" encoding="utf-8"?>
<!-- Generator: Adobe Illustrator 19.0.0, SVG Export Plug-In . SVG Version: 6.00 Build 0)  -->
<svg version="1.1" id="Layer_1" xmlns="http://www.w3.org/2000/svg" xmlns:xlink="http://www.w3.org/1999/xlink" x="0px" y="0px"
	 viewBox="0 0 1041.9 522.1" style="enable-background:new 0 0 1041.9 522.1;" xml:space="preserve">
<style type="text/css">
	.st0{fill:#C65162;}
	.st1{fill:#FFFFFF;}
</style>
<g>
	<path class="st0" d="M241.1,159.2c0.6,0.3,1.1,0.7,1.7,1c0.9,0.6,1.8,1.2,2.6,1.7c3.6,2.9,7.1,5.9,9.5,9.9
		c2.1,3.7,3.2,7.5,2.2,11.8c-0.3,1.4-0.1,2.9-0.6,4.3c-0.4,1.3-1.1,2.5-2.5,2.9c-0.6,0.2-0.8,0.5-0.9,1c-0.3,1.9-0.7,3.8-1,5.7
		c-0.1,0.6-0.2,1.1,0.1,1.6c1.3,1.7,1.1,3.5,0.2,5.3c-0.1,0.2-0.1,0.5-0.2,0.9c3.5-0.2,6.9-0.3,10.2-0.5c0.1,0,0.2,0,0.3,0
		c0.4,0,0.9,0,1.3,0c0.2,0,0.5,0,0.7,0c0.5,0,1.1,0,1.6,0c0.5,0,1.1,0,1.6,0c1.5,0,2.9,0,4.4,0c0.2,0,0.4,0,0.5,0c0.3,0,0.6,0,0.9,0
		c0,0,0.1,0,0.1,0l0.1,0c0.7,0,1.4,0,2.1,0c0.2,0,0.4,0,0.7,0c2.4,0.1,4.9,0.2,7.3,0.3c0.5,0,1,0,1.5,0c0.1,0,0.2,0,0.4,0
		c5.3,0.5,10.6,0.9,15.8,1.8c0.7,0.1,0.9,0,0.9-0.7c0-2.7,0-5.4,0-8.2c0-1.7-1.3-0.9-2-0.9c-1.4,0.1-1.7-0.4-1.6-1.7
		c0-1,0.4-1.3,1.3-1.2c0.9,0.1,1.6,0.1,1.6-1.2c0-1.1-0.4-1.5-1.4-1.3c-0.9,0.1-1.2-0.3-1.1-1.1c0.7-3.2-0.8-5.1-3.5-6.8
		c-2-1.2-3.8-1.3-6-1.4c-2.9-0.2-5.8-0.4-8.7-0.9c-1-0.2-2.1-0.3-3.1-0.6c-0.5-0.1-1.3-0.2-1.3-0.8c0-0.6,0.8-0.7,1.3-0.8
		c2.5-0.6,5-0.8,7.6-1c1.8-0.1,3.6-0.3,5.5-0.4c0.1,0,0.2,0,0.3,0c3.2,0.5,5.2-1.9,7.5-3.3c0.7-0.4,0.3-1.6,0.2-2.4
		c-0.1-1.2,0.2-1.8,1.5-1.6c1.2,0.2,1.5-0.4,1.4-1.5c-0.1-0.9-0.1-1.8,0-2.7c0.1-0.8-0.6-2,0.9-2.4c0.2,0,0.1-0.8,0.1-1.2
		c0-3.3,0-6.6,0-9.8c0-0.9,0-1.9,1.1-1.9c1.2,0,1.1,1,1.1,1.8c0,3.2,0,6.4,0,9.7c0,0.7-0.5,1.6,0.8,1.8c0.1,0,0.2,0.6,0.2,0.9
		c0,0.9,0.1,1.9,0,2.8c-0.1,1.5-0.3,3,2.1,2.5c0.8-0.2,0.8,0.5,0.7,1c-0.5,2.4,0.9,3.4,2.7,4.6c2.8,2.1,5.9,1.6,8.9,1.9
		c2.9,0.3,5.7,0.5,8.6,1c0.7,0.1,1.3,0.3,1.8,0.7c-0.2,0.3-0.5,0.6-0.7,1c-0.2,0-0.4,0-0.7,0.1c-0.2,0-0.4,0.1-0.7,0.1
		c-0.1,0-0.2,0.1-0.4,0.1c-0.2,0-0.4,0.1-0.6,0.1c-0.5,0-1-0.1-1.5,0.3c-0.6,0.1-1.2,0.1-1.9,0.2c-0.8-0.1-1.6,0-2.3,0.3
		c-0.7,0-1.3,0-2,0.1c-2.6,0.4-5.2-0.2-7.6,1.5c-2.7,1.8-4.5,3.5-3.8,7c0.2,0.8-0.2,1.2-1.1,1.1c-0.9-0.1-1.5-0.1-1.6,1.2
		c0,1.4,0.7,1.4,1.7,1.3c0.8-0.1,1.2,0.1,1.2,1.1c0.1,1.3-0.2,1.9-1.7,1.8c-0.7-0.1-1.9-0.6-1.8,1c0.1,2.9,0,5.9,0,8.8
		c0,0.4,0,1,0.6,1c0.6,0,0.3-0.6,0.4-0.9c0.1-0.4-0.1-0.8,0.6-0.8c0.6,0.1,0.5,0.5,0.5,0.9c-0.1,0.9,0,1.6,0.8,2.2
		c0.3,0.3,0.2,0.7,0,1.1c-1.2,2-1,6.8,0.3,8.9c0.3,0.4,0.3,0.8,0.3,1.3c0,3.9,0,7.9,0,11.8c0,0.5,0,1-0.5,1.3
		c-0.8,0.6-0.8,1.4-0.8,2.2c0,5.6,0.1,11.1,0,16.7c0,1.4,0.3,2,1.8,1.9c1.4-0.1,1.8,0.4,2,1.8c0.3,2.2,0.2,4.6,1.2,6.7
		c2.3,4.9,4.7,9.8,7.1,14.6c0.3,0.6,0.6,1.1,0.9,1.7c0,0.1,0.1,0.2,0.1,0.3c0.1,0.1,0.1,0.2,0.2,0.4c3.6,7.4,7.2,14.8,10.8,22.2l0,0
		c0.1,0.1,0.1,0.3,0.2,0.4c0.5,1,1,2,1.5,3.1c0.4,1,0.8,2,1.5,3c0.5,1.1,1.1,2.3,1.6,3.4c3.8,7.8,7.6,15.6,11.4,23.5
		c0.3,0.7,0.7,1.4,1,2.1c0.4,1,0.8,1.9,2.1,2c0.2,0,0.4,0.1,0.6,0.3c1.8,1.9,3.9,3.6,5.5,5.8c0.2,1.2,0,2.4-1.1,3
		c-1.3,0.7-2.4,0.3-3.4-0.8c-0.7-0.8-1.5-1.5-2.2-2.2c-1.5-1.5-2.3-3.3-3.2-5.2c-6.9-14.6-14.1-29.1-21.2-43.6
		c-0.5-1.1-1.1-1.4-2.3-1.4c-2.1,0.1-4.1,0-6.2,0c-0.8,0-1.2,0-1,1.1c0.8,4.1,1.2,8.4,2.5,12.4c0.8,2.5,1.5,5,2,7.6
		c0.3,1.6-0.3,2.7-1.6,3c-1.2,0.3-2.4-0.5-2.6-2.1c-0.4-2.4-1.5-4.7-0.7-7.3c0.3-1-0.3-2.3-0.5-3.4c-0.6-3.3-1.2-6.5-1.8-9.8
		c-0.1-0.5,0.1-1.5-1-1.4c-1.1,0.1-0.6,1.1-0.6,1.6c0,12.2,0,24.3,0,36.5c0,1.4-0.4,2-1.8,2.1c-1.3,0.1-2.6,0.6-3.9,0.9
		c-0.1-0.1-0.2-0.1-0.3-0.1c0-0.4-0.1-0.7-0.1-1.1c-0.4-1-1.1-1.1-2.1-0.2c-0.8,0.1-1.7,0.1-2.5,0.2c-0.1,0-0.2-0.1-0.4-0.1
		c-0.1-0.5-0.2-1-0.3-1.5c0.2-0.1,0.1-0.3,0-0.5c0-0.4,0-0.9,0-1.3c-0.5-0.8-1.4-0.7-2.2-0.9c-7.1-2-14.1-4-21.2-6
		c-0.9-0.3-1.6-0.3-2,0.7c-0.2,0.6-0.6,1.1-0.9,1.6c-1.3,2-1.3,2-3.3,1c-0.5-0.4-0.8-0.7-0.3-1.3c0.5-0.7,0.9-1.5,1.4-2.2
		c0.5-0.7,0.4-1-0.5-1.3c-1.2-0.4-1.6-0.2-1.5,1.1c0.1,0.9-0.1,1.8,0.1,2.6c0.2,1-0.3,1.3-1.1,1.4c-1.1,0-2.2,0-3.3,0
		c-0.4-0.2-0.9-0.1-1-0.6c0-5.5,0-11,0-16.6c-0.6,0.2-0.6,0.7-0.6,1.2c-0.8,7.9-1.6,15.8-2.3,23.7c-0.4,3.6-0.7,7.2-1,10.8
		c-0.1,0.8-0.1,1.5,0.4,2.2c0.5,0.7,0.3,1.6,0.2,2.4c-0.2,2-0.4,4.1-0.6,6.1c-0.2,1.6-1,2.6-2.3,2.5c-1.3-0.1-2.1-1.1-2-2.7
		c0.2-2.5,0.4-5,0.7-7.5c0.2-1.4,1.4-2.3,1.5-3.9c0.7-8.4,1.6-16.8,2.4-25.2c0.2-1.6,0.3-3.1,0.1-4.8c-2.6,3.9-5.3,7.9-7.9,11.8
		c-1.6,2.3-3.2,4.6-3.8,7.5c-0.1,0.7-0.5,0.8-1.1,0.8c-0.6,0-1.2,0.1-1.8,0.1c-0.7,0-1.9,0.6-2.1-0.1c-0.3-0.9-0.6-2.3,0.3-3.2
		c7.4-7.5,12-17,18.2-25.4c1.4-1.9,2.1-3.8,1.9-6.1c-0.1-1.7,0-3.4,0-5.1c-0.4-0.2-0.5,0.1-0.7,0.3c-6.3,6.9-12.7,13.8-18.9,20.8
		c-1.9,2.2-3.4,4.8-5.3,7.1c-4.3,5.4-9.6,9.7-15.9,12.7c-1.9,0.9-2.1,2.9-3,4.4c-0.4,0.6,0.6,0.9,1.1,1.3
		c5.9,4.7,11.8,9.3,17.7,13.9c3.9,3.1,7.8,6.2,11.8,9.3c0.3,0.2,0.6,0.7,0.9,0.7c3-0.1,4.4,2.5,6.5,3.9c1.1,0.7,1.2,1.9,0.4,2.9
		c-0.8,1.1-2,1.3-3.1,0.4c-1.5-1.1-3.3-2-4.2-3.5c-2.7-4.5-7.3-6.6-11-9.8c-3.7-3.2-7.7-6.1-11.6-9.2c-3-2.3-5.9-4.7-8.9-7
		c-0.7-0.6-1.1-0.5-1.6,0.3c-8.8,13.4-21.1,21.8-36.9,24.8c-12.4,2.3-24.4,0.5-35.9-4.6c-11.1-5-20.2-12.4-27.5-22.1
		c-0.8-1.1-1.3-1.3-2.5-0.5c-4,2.8-8.1,5.5-12.1,8.2c-0.5,0.3-1,0.6-1.1,1.3c-0.1,0.7-0.7,1.1-1.2,1.5c-1.3,0.8-2.5,1.7-3.7,2.5
		c-1.4,0.9-2.6,0.8-3.4-0.3c-0.7-1.1-0.4-2.3,0.9-3.3c1.2-0.9,2.5-1.7,3.7-2.5c0.6-0.4,1.3-0.9,2.2-0.6c0.5,0.2,0.8-0.1,1.2-0.4
		c4.3-2.9,8.6-5.8,12.9-8.6c0.7-0.5,0.8-0.8,0.3-1.5c-6.7-10.2-10.8-21.4-12.1-33.6c-0.1-0.9-0.3-1.1-1.2-1.1
		c-3.7,0.1-7.3,0.1-11-0.2c-0.8-0.1-1.2,0.2-1,1c0.9,4-1,6.2-4.6,7.3c-0.4,0.1-0.8,0.4-1.1,0.7c-0.4-0.1-0.7,0.2-1,0.4
		c-0.4,0.2-0.7,0.3-1.1,0.5c-0.8,0.3-1.4,0.5-0.8,1.8c0.7,1.6,0.5,3.6,0.1,5.4c-0.3,1.5-1.8,1.7-3.9,0.8c0,1.6-0.1,3.2,0,4.7
		c0.1,1.7-0.4,3.2-1.3,4.7c-2.6,4.3-5.1,8.6-7.6,12.8c-0.6,1-0.8,1.9-0.4,3.3c0.7,2.4,0.4,5.1,0.1,7.6c-0.1,1.1-1.1,1.6-2.2,1.5
		c-1.3-0.1-1.9-0.9-2-2.1c-0.1-2-0.1-4-0.1-6c0-0.3,0-0.7,0-1c2-2.7,2.9-6,4.9-8.7c0-0.1,0.1-0.2,0.1-0.3c0.7-0.8,1.2-1.7,1.6-2.7
		l0,0c0.1-0.1,0.1-0.2,0.2-0.3c0.1-0.1,0.1-0.2,0.2-0.3c0.3-0.3,0.5-0.6,0.6-1c1.2-1.6,2.1-3.4,3.1-5.1c0.3-0.5,0.4-1,0.4-1.6
		c-0.2-7.5-0.4-15-0.6-22.5c-0.1-3.3-0.2-3.3-3.5-3.9c-0.8-0.3-1.6-0.6-2.3-0.8c-0.2-0.1-0.4-0.1-0.6-0.2l0,0
		c-0.4-0.2-0.7-0.3-1.1-0.5c-0.5-0.2-0.9-0.5-1.4-0.7c-1.4-1.2-3.2-2.1-2.4-4.5c0.2-0.5-0.4-0.7-0.8-0.9c-0.1-0.1-0.1-0.2-0.2-0.3
		c-1.5-2.4-1.4-3.3,0.6-5.7c0.1,0,0.1,0,0.1-0.1c0.5-0.4,1.1-0.6,1.1-1.5c-0.2-7-0.3-14-0.7-21c0-0.6,0-1.1,0-1.7c0-3,0.1-6-0.3-9
		c0-0.4,0-0.9-0.1-1.3c0-0.7,0-1.3,0-2c0-1.5-0.1-2.9-0.1-4.4c0.1-1,0.1-2.1-0.2-3.1c0-1-0.1-2.1,0-3.1c0.1-1.6-0.1-2.8-1.9-3.4
		c-0.9-0.3-1.5-1.1-1.4-2.2c0.3-0.7,0.5-1.4,0.6-2.2c0.1-0.1,0.1-0.2,0.1-0.3c0.3-0.9,0.6-1.8,0.9-2.7c0.3-0.6,1-0.7,1.4-1
		c1.1-0.1,2-0.6,3-0.9c16.9-3.5,34-3.7,51.2-3.3c1.6,0,3.1,0.1,4.7,0.2c-0.2-0.7-0.9-0.7-1.4-0.9c-5.5-2.6-10.7-5.7-15-10
		c-3.3-3.2-6-6.8-6-11.6c0-0.5-0.2-1-0.3-1.4c-0.1,0-0.3-0.1-0.3,0c-0.5,0.4-0.8,1.3-1.6,0.9c-0.7-0.4-0.6-1.2-0.6-1.9
		c0-1,0.3-2,0.8-2.9c0.8-1.6,1.7-3.2,2.5-4.9c0.7-1.3,1.7-2.5,0.3-4c-0.4-0.4-0.1-0.8,0.1-1.3c1.2-3.5,2.3-6.9,3.5-10.4
		c0.3-0.8,0.6-1.6,1.7-1.3c0.8,0.2,0.8-0.4,0.9-0.9c0.9-2.4,2.2-4.8,2-7.5c0-0.6,0.5-0.8,0.9-1.2c1-1.1,1.8-2.2,3.5-1.3
		c0,0,0.2-0.2,0.3-0.4c4.6-5.7,10.9-7.8,17.8-8.6c13.2-1.5,25.4,1.8,36.7,8.5c0.5,0.3,0.8,0.7,1.6,0.7c0-0.7,0-1.4,0-2.1
		c0-5.3,0-10.7,0.1-16c0-1.1-0.3-1.8-1.1-2.6c-6.5-5.8-12.9-11.6-19.3-17.4c-0.9-0.8-1.9-1.6-1.6-3.1c0.2-0.9-0.5-0.9-1.1-0.9
		c-5.8,0.1-11.7-0.3-17.4-1c-4.5-0.6-8.9-1.4-13.1-3c-0.8-0.3-1.6-0.7-2.4-1.2c-2.7-1.7-2.7-3.7,0-5.4c1.9-1.2,4-1.9,6.2-2.4
		c7.4-1.9,15-2.6,22.6-2.7c2.1,0,2,0,1.1-1.8c-0.4-0.8-1.7-1.9-0.3-2.7c1.4-0.8,1.6,0.9,2.2,1.6c0.2,0.2,0.3,0.4,0.8,1.1
		c0.9-1.1,1.7-2,2.5-3c0.5-0.6,1.1-0.8,1.7-0.2c0.6,0.6,0.4,1.2-0.2,1.7c-1,0.9-1.9,1.8-2.9,2.7c0.7,0.7,1.4,0.5,1.9,0.5
		c7.7,0.1,15.4,0.8,22.9,2.7c1.8,0.5,3.5,1.1,5.1,1.9c1.2,0.6,2.3,1.4,3,2.5c0,0.4,0,0.9,0.1,1.3c-1,1.8-2.7,2.7-4.6,3.4
		c-6.2,2.4-12.7,3-19.2,3.6c-1.7,0.1-3.3,0.1-5,0.3c-0.6,0.1-1.4-0.5-1.7,0.5c-0.2,0.8,0.2,1.3,0.8,1.8c2.1,1.8,4,3.6,6.1,5.5
		c4.6,4.2,9.3,8.4,14,12.6c0.9,0.8,1.2,1.6,1.2,2.7c-0.1,6.5-0.1,13-0.2,19.5c0,0.9,0.2,1.6,1,2.1c1.9,1.2,3.5,2.8,5,4.4
		c1.3,1.5,2.6,3.2,3.6,5c0,0.1,0.1,0.2,0.1,0.3c0.1,0.2,0.3,0.5,0.4,0.7c0.5,1.1,0.8,2.3,1.7,3.4c0.5-1.8,0.9-3.5,1.4-5.1
		c0.4-0.9,0.9-1.8,0.8-2.8c0,0,0,0,0,0c0.9-1.1,1.7-2.3,2.6-3.4c0.1-0.1,0.2-0.2,0.3-0.3c1.7-1,2.5-2.6,2.5-4.5c0-3,0.9-5.6,3.3-7.6
		c0.6-0.5,1.3-1.3,1.9,0.1c0.2,0.5,0.5,0.2,0.8,0c1.5-1.1,3.2-1.9,4.9-2.7l0,0c4.1-1.4,8.3-1.9,12.6-2.1c0.2,0,0.4,0,0.7,0
		c0.4,0,0.9,0,1.3,0c0.2,0,0.4,0,0.6,0c5.6,0.6,11.1,1.7,16.3,3.7c0.5,0.2,1.1,0.4,1.6,0.6c0.3,0.4,0.7,0.3,1.1,0.3c0,0,0,0,0,0
		c0.2,0.4,0.6,0.6,1,0.6c0.9,0.5,1.8,0.9,2.7,1.4C240.6,159.2,240.8,159.2,241.1,159.2z M293.4,250.8c-0.2,0.1-0.4,0.1-0.6,0.2
		c-4.3,0.1-8.6-0.4-12.9-1c-1-0.1-1.6,0.1-1.7,1c-0.2,1.6-1.2,1.7-2.5,1.4c-0.4-0.1-1.1-0.5-1.3,0.1c-0.6,2-2.1,1.4-3.5,1.1
		c0,0.5,0,0.8,0,1.1c0,12.7,0,25.4,0,38.1c0,0.2,0,0.4,0,0.7c0,0.8,0.6,1.3,1.2,1.5c0.4,0.2,0.7-0.6,1-1c2.3-3.4,4.5-6.7,6.8-10.1
		c3.7-5.6,7.4-11.2,11.2-16.7c0.1-0.2,0.3-0.4,0.4-0.6c1.2-1.5,2.3-3.1,3.3-4.8c0.7-1.1,1.4-2.1,2.1-3.2l0,0c0.5-0.5,0.8-1,0.9-1.7
		c0.2-2.8,0.2-2.8,3.1-2.7c0.2,0,0.3,0,0.5,0c0.8,0.1,1.1-0.2,1.1-1c0-2.2-0.1-4.4,0-6.7c0-1-0.3-0.9-1.1-0.8c-2.8,0.5-5.6,1-6.8,4
		C294,250.3,293.6,250.5,293.4,250.8z M111.1,195.2c-1.6,0.1-3,0.8-4.4,1.5c-4,2.2-5.1,5.7-3,9.8c1.5,2.9,3.7,5.2,6.3,7.1
		c0.3,0.3,0.6,0.6,1,0.9c14.2,9.8,29.9,14.6,47.3,13.9c3.3-0.1,6.6-0.9,9.5-2.8c2.8-1.8,3.9-4.6,3.1-7.6c-0.4-1.4-1.1-2.7-1.9-3.8
		c-2.3-3.2-5.3-5.7-8.6-7.8c-11.1-7.1-23.4-11-36.5-12.2c-3.9-0.4-7.9-0.4-11.7,0.6C111.7,194.9,111.4,194.9,111.1,195.2z
		 M218.8,199c-0.4-0.1-0.7-0.2-1.1-0.4c-7.3-2.4-14.8-3.8-22.6-3.1c-3.2,0.3-6.4,1-9,3c-2.4,1.8-3.3,4.3-2.4,7.2
		c0.8,2.8,2.5,4.9,4.6,6.8c8.4,7.6,18.5,11.6,29.4,13.6c0.6,0.2,1.3,0.4,2,0.3c0.5,0.1,1.1,0.2,1.6,0.3c1.9,0.2,3.8,0.5,5.7,0.4
		c0.8,0,1.6,0,2.3,0c3.7-0.1,7.3-0.7,10.5-2.7c3.2-2,4.2-5.2,2.6-8.6c-1.6-3.7-4.4-6.4-7.8-8.7c-0.5-0.6-1.2-1-1.9-1.3
		c-0.4-0.5-0.9-0.8-1.4-0.9c-1.5-1.1-3.2-2-5-2.7c-1-0.7-2.2-1.1-3.4-1.6c-0.1,0-0.2-0.1-0.3-0.1c-1.2-0.7-2.4-1.1-3.7-1.4
		C219,199.1,218.9,199.1,218.8,199z M297.8,293.6c-0.5-0.4-1.2-0.3-1.8-0.3c-5.4-0.9-10.8-1.7-16.2-2.6c-0.8-0.1-1.1,0.4-1.4,0.9
		c-1.2,1.7-2.3,3.4-3.4,5.1c-0.5,0.7-0.5,1.1,0.1,1.8c9.5,9.4,19,18.8,28.5,28.2c0.7,0.7,1.2,0.7,2.1,0.4c1-0.3,0.7-1,0.7-1.6
		c0-7.9,0-15.9,0-23.8c0-3,0-3.1-3-3c-1,0-1.4-0.1-1.4-1.3c0-3.4,0-3.4-3.5-3.8C298.3,293.6,298.1,293.6,297.8,293.6z M215.1,275.3
		c-0.2-0.6-0.5-1.2-1-1.6c-1.7-3.3-3.9-6.2-6.3-9c-11.7-13.6-26.1-22.2-44.4-22.8c-17.1-0.6-31,6.2-41.3,19.8
		c-8.8,11.7-12.2,25.1-11,39.5c1.7,22.7,11.9,40.9,30.7,53.9c11.5,8,24.4,11.7,38.5,9.7c17.3-2.4,29.9-11.8,37.8-27.2
		c6.2-12,7.7-24.9,5.6-38.2C222.3,290.8,219.5,282.7,215.1,275.3z M249.7,308.6c5.2-5.7,10.3-11.3,15.5-17c0.3-0.4,0.4-0.8,0.4-1.2
		c0-8.7,0-17.4,0-26.1c0-0.9-0.3-1-1.1-0.8c-5.5,0.9-11.1,1.1-16.7,1.4c-1.4,0.1-1.4,0.4-0.9,1.5c3.1,6.9,4.9,14.2,5.3,21.8
		C252.4,295.1,251.6,301.9,249.7,308.6z M232.9,240.7c-1.5-0.5-1.8-0.7-1.8-1.3c-0.1-1,0.7-1.3,1.4-1.7c0.4-0.2,0.9-0.4,1.4-0.5
		c0.7-0.1,1-0.5,1-1.2c0.1-2.8,0.1-2.8-2.6-3.7c-0.4-0.1-0.7-0.3-1.1-0.3c-0.6-0.1-1-0.5-1-1.1c0-1-0.6-1-1.3-0.9
		c-12.4,0.3-23.9-3-34.5-9.4c-3.4-2-6.4-4.5-9.2-7.3c0.4,4.2-0.6,8.4,0.4,12.6c0.4,1.9,0.6,3.4,2.3,4.4c0.1,0.1,0.3,0.2,0.3,0.4
		c0.5,1.1,1.4,1.2,2.5,1.1c13.5-1.2,25.6,2.6,36.6,10.4c0.8,0.6,1.6,1.2,2.4,1.8c1,0.7,1.8-0.1,2.7-0.3c0.4-0.1,0.4-0.4,0.2-0.6
		C231.8,242.1,232.5,241.5,232.9,240.7z M139.7,229.8c-1.7-0.4-2.9-0.7-4.1-1.1c-4.4-1.1-8.6-2.6-13.3-2.7
		c-12.6-0.2-25.1-0.2-37.6,0.7c-5.8,0.4-11.6,0.8-17.3,2.3c-0.9,0.2-2.4,0.3-2.4,1.4c0,1.1,1.5,1.1,2.4,1.3
		c5.8,1.3,11.7,1.5,17.5,1.6c14.5,0.4,29,0.2,43.4-1.3C132.1,231.5,135.8,231.1,139.7,229.8z M281.2,287.4c0.2,0.1,0.4,0.2,0.5,0.2
		c6.4,1,12.8,2,19.2,3c1.2,0.2,1.1-0.5,1.1-1.2c0-9.2,0-18.4,0-27.7c0-0.9-0.2-1.3-1.2-1.7c-1-0.4-1.4,0.1-1.8,0.8
		c-2,3-4.1,6.1-6.1,9.1C289,275.8,285.1,281.6,281.2,287.4z M170.3,227.1c-8.6,5.1-17.5,4.4-26.4,3.4c0.1,1.4,1.1,2.7,0.4,3.8
		c-0.8,1.3-0.6,2.7-0.8,4c-0.1,0.9,0.2,1,1,0.7c7.6-2.4,15.3-3.1,23.1-2.2c0.8,0.1,1.1-0.2,1.1-1c0-1.5,0-3,0-4.5
		c0-0.4-0.1-1,0.2-1.1C171.2,229.9,169.5,228.3,170.3,227.1z M284.3,311.8c-2.1,3.4-4,6.7-6,9.8c-0.7,1.1-0.3,1.3,0.7,1.6
		c5.7,1.6,11.4,3.2,17.1,4.7c1.8,0.5,3.5,1.2,5.2,1.3C295.6,323.5,290,317.7,284.3,311.8z M270.7,311.8
		C270.7,311.8,270.7,311.8,270.7,311.8c0,2.2,0,4.3,0,6.5c0,2.6,0,2.6,2.6,3.3c0.8,0.2,1.3,0.1,1.7-0.7c2-3.5,4.1-6.9,6.2-10.4
		c0.5-0.8,0.4-1.2-0.2-1.8c-2.3-2.2-4.5-4.4-6.8-6.6c-1.8-1.7-2.6-1.5-3.4,0.9c-0.1,0.4-0.1,0.9-0.1,1.3
		C270.7,306.8,270.7,309.3,270.7,311.8z M323.8,292.3c-2.3-4.8-4.6-9.5-6.9-14.1c-1.5-3-3-6.1-4.5-9.1c-0.2-0.3-0.3-0.9-0.7-0.7
		c-0.5,0.2-0.2,0.7-0.1,1.1c0.3,1.3,0.6,2.7,0.8,4.1c1.1,5.9,2.2,11.8,3.3,17.7c0.1,0.7,0.3,1.2,1.2,1.2
		C319.1,292.3,321.3,292.3,323.8,292.3z M78.1,315.3c0.3,0.1,0.5,0.2,0.8,0.3c0.9-3.6,4.3-3.7,6.6-5.2c0.2-0.1,0.4-0.2,0.6-0.3
		c2.7-0.7,3.5-2.4,3.1-5.1c-0.1-0.9-0.3-1.2-1.2-1.3c-2.9-0.2-5.8-0.5-8.7-1.1c-0.9-0.2-1.1,0.2-1.1,1
		C78.1,307.5,78.1,311.4,78.1,315.3z M308.1,265.1c-0.1,0-0.2,0-0.3,0c0,7.7,0,15.3,0,23c0,4.3,0,4.3,4.3,4.2c0.8,0,1-0.1,0.8-1
		c-0.6-2.7-1-5.4-1.5-8.2C310.3,277.1,309.2,271.1,308.1,265.1z M306.7,215.3c0-0.8,0-1.6,0-2.3c0-0.4,0.3-1-0.4-1
		c-0.6,0-0.8,0.4-0.8,1c0,1.7,0,3.4,0,5.2c0,0.3-0.2,0.8,0.5,0.8c0.6,0,0.8-0.3,0.8-0.8C306.7,217.2,306.7,216.2,306.7,215.3z"/>
	<path class="st0" d="M271.4,328.9c0,0,0.1,0,0.1,0.1C271.5,329,271.5,328.9,271.4,328.9C271.4,328.9,271.4,328.9,271.4,328.9z"/>
	<path class="st0" d="M316.3,172.3c0-0.1-0.1-0.2-0.1-0.3c0,0,0.1-0.1,0.2-0.1c0,0,0.1,0.1,0,0.1
		C316.4,172.1,316.3,172.2,316.3,172.3z"/>
	<path class="st0" d="M273,204.8c-0.2,0-0.4,0-0.5,0C272.6,204.8,272.8,204.8,273,204.8z"/>
	<path class="st0" d="M193.2,147c0-0.1,0-0.1,0-0.2c0,0,0.1,0,0.1,0C193.3,146.9,193.3,146.9,193.2,147z"/>
	<path class="st0" d="M181.4,118.6c-0.1,0.1-0.2,0.2-0.3,0.3C181.2,118.8,181.3,118.7,181.4,118.6z"/>
	<path class="st0" d="M255.7,171.6c0,0-0.1,0.1-0.1,0.1c0,0-0.1-0.1-0.1-0.1c0,0,0.1-0.1,0.1-0.1
		C255.6,171.5,255.7,171.6,255.7,171.6z"/>
	<path class="st0" d="M262.8,204.9c-0.1,0-0.2,0-0.3,0C262.5,204.7,262.6,204.7,262.8,204.9z"/>
	<path class="st0" d="M331.9,302.5c0.1,0,0.2,0,0.4,0c0,0.1-0.1,0.2-0.1,0.4C332.1,302.8,332,302.7,331.9,302.5z"/>
	<path class="st0" d="M72.1,335.9c0.1-0.1,0.1-0.2,0.2-0.3C72.2,335.7,72.1,335.8,72.1,335.9z"/>
	<path class="st0" d="M320.9,279.9c0.1,0,0.2,0,0.2,0c0,0.1,0,0.2,0,0.3C321,280.2,320.9,280,320.9,279.9z"/>
	<path class="st0" d="M289,252.3c0,0-0.1,0-0.1,0c0,0,0-0.1,0-0.1c0,0,0.1,0,0.1,0C289,252.3,289,252.3,289,252.3z"/>
	<path class="st0" d="M295.3,258.7c0,0-0.1,0-0.1,0c0,0,0-0.1,0-0.1c0,0,0.1,0,0.1,0C295.3,258.6,295.3,258.6,295.3,258.7z"/>
</g>
<g>
	<g>
		<path class="st1" d="M545.2,203.7c4.6,0,8.9,0.7,12.8,2.2c4,1.5,7.4,3.7,10.3,6.6c2.9,2.9,5.2,6.6,6.8,11
			c1.6,4.4,2.5,9.6,2.5,15.5c0,5.2-0.7,10-2,14.4c-1.3,4.4-3.4,8.2-6.1,11.4c-2.7,3.2-6.1,5.7-10.1,7.5c-4,1.8-8.8,2.8-14.3,2.8
			h-30.8v-71.4H545.2z M544.1,261.9c2.3,0,4.5-0.4,6.6-1.1c2.1-0.7,4-2,5.7-3.7c1.7-1.7,3-3.9,4-6.6c1-2.7,1.5-6.1,1.5-10
			c0-3.6-0.4-6.9-1-9.8c-0.7-2.9-1.9-5.4-3.5-7.4c-1.6-2.1-3.7-3.7-6.4-4.8c-2.6-1.1-5.9-1.7-9.8-1.7h-11.2v45H544.1z"/>
		<path class="st1" d="M627,203.7c3.2,0,6.1,0.5,8.6,1.5c2.6,1,4.8,2.5,6.6,4.3c1.8,1.8,3.2,3.9,4.2,6.3c1,2.4,1.4,4.9,1.4,7.6
			c0,4.2-0.9,7.8-2.6,10.9c-1.8,3.1-4.6,5.4-8.6,7v0.2c1.9,0.5,3.5,1.4,4.8,2.5c1.3,1.1,2.3,2.4,3.1,3.9c0.8,1.5,1.4,3.1,1.8,5
			c0.4,1.8,0.6,3.6,0.8,5.4c0.1,1.1,0.1,2.5,0.2,4c0.1,1.5,0.2,3.1,0.4,4.7c0.2,1.6,0.4,3.1,0.8,4.6c0.4,1.4,0.9,2.6,1.6,3.6h-15.7
			c-0.9-2.3-1.4-5-1.6-8.1c-0.2-3.1-0.5-6.1-0.9-9c-0.5-3.7-1.7-6.5-3.4-8.2c-1.7-1.7-4.6-2.6-8.5-2.6h-15.7v27.9h-15.7v-71.4H627z
			 M621.4,236c3.6,0,6.3-0.8,8.1-2.4c1.8-1.6,2.7-4.2,2.7-7.8c0-3.5-0.9-6-2.7-7.6c-1.8-1.6-4.5-2.4-8.1-2.4h-17.2V236H621.4z"/>
		<path class="st1" d="M713.2,269.6c-5.4,4.7-12.9,7.1-22.4,7.1c-9.7,0-17.1-2.3-22.5-7c-5.3-4.7-7.9-11.9-7.9-21.6v-44.4h15.7v44.4
			c0,1.9,0.2,3.8,0.5,5.7c0.3,1.9,1,3.5,2.1,4.9c1.1,1.4,2.6,2.6,4.5,3.5s4.4,1.4,7.6,1.4c5.6,0,9.5-1.3,11.6-3.8
			c2.1-2.5,3.2-6.4,3.2-11.8v-44.4h15.7v44.4C721.3,257.8,718.6,264.9,713.2,269.6z"/>
		<path class="st1" d="M756.9,203.7l16.7,49.1h0.2l15.8-49.1h22.1v71.4H797v-50.6h-0.2l-17.5,50.6h-12.1L749.7,225h-0.2v50.1h-14.7
			v-71.4H756.9z"/>
	</g>
	<g>
		<path class="st1" d="M972.3,288.4c-9.4,5.4-20,6-30.2,3.5c-17-4.1-33.7-9.7-50.7-14.2c-12.6-3.3-25.4-5.8-39.8-9
			c4.4-3.1,7.3-5.8,10.7-7.5c16.9-8.5,33.6-17.2,50.9-24.9c22.5-10,41.5-24.6,57.8-42.8c2.1-2.3,3.4-5.3,5.9-9.5
			c-7,0.6-11.9,1.3-16.8,1.4c-24.4,0.4-48.1-3.7-71.5-10.1c-12.7-3.5-25.8-5-38.1-0.6c-15.7,5.6-30.6,13.5-45.7,20.6
			c-1,0.5-1.2,2.4-2.7,5.4c7-2.2,12.3-4.4,17.8-5.4c18-3.3,36-3,53.9,1.1c17.8,4.1,35.7,7.5,55.4,11.6c-5.5,4.1-9.6,8.2-14.6,10.6
			c-24.8,11.9-49.9,23.3-74.8,34.9c-11.4,5.3-23.3,9.7-33.8,16.4c-8,5.1-14.2,13-21,20c-1.2,1.2-1,3.8-1.4,5.8
			c1.9,0.3,3.8,1,5.7,0.9c8.6-0.6,17.3-1.8,25.9-2c35.3-0.6,69.2,7.7,103.1,16.2c8.3,2.1,17.1,3.2,25.6,3
			c14.3-0.4,25.6-7.3,35.5-16.7c-1.3-1.8-2.2-4-3.4-5.9C974.7,290.4,973.4,289.4,972.3,288.4z"/>
	</g>
	<g>
		<path class="st1" d="M461.3,274c-21.8-1.8-43.1-7-64.4,1.2c-0.7-0.6-1.3-1.2-2-1.8c4-6.1,7.6-12.5,12-18.3
			c12.8-16.7,26.6-32.7,38.7-49.9c7.3-10.3,11.4-22.7,18.4-33.2c4.5-6.6,11.7-11.4,17.7-16.9c1.1,0.8,2.2,1.6,3.3,2.5
			c-1.5,4.5-2.2,9.7-4.8,13.5c-14.4,21.4-29.1,42.5-43.9,63.6c-4.5,6.5-9.6,12.6-15.8,20.8c14.9,0.7,27.7,1.5,40.6,1.7
			c1.2,0,3.6-3.2,3.6-5c0.2-8-0.3-15.9-0.4-23.9c0-2.1,0.1-5.3,1.3-6c6.7-3.8,13.6-7.3,20.7-9.9c1.2-0.4,6,3.9,6,6.1
			c0.2,10.3-0.3,20.7-1.4,31c-1,9.7,0.4,11.8,10.3,10.2c5.5-0.8,10.8-2.6,17-4.1c-1.5,9.3-8.6,11.9-15.1,14.6
			c-7.4,3.1-18,1.8-16.6,14.8c0.8,8.3,0.7,16.6,1.2,27.6c-4.7,1.9-12.1,5.4-19.8,7.7c-5.9,1.8-8.2-2.7-8.1-7.6
			c0.2-9.2,1-18.3,1.5-27.5C461.5,282,461.3,278.7,461.3,274z"/>
	</g>
</g>
</svg>
