<?xml version="1.0" encoding="utf-8"?>
<!-- Generator: Adobe Illustrator 19.0.0, SVG Export Plug-In . SVG Version: 6.00 Build 0)  -->
<svg version="1.1" id="Layer_1" xmlns="http://www.w3.org/2000/svg" xmlns:xlink="http://www.w3.org/1999/xlink" x="0px" y="0px"
	 viewBox="0 0 595.3 841.9" style="enable-background:new 0 0 595.3 841.9;" xml:space="preserve">
<style type="text/css">
	.st0{fill:#FFFFFF;}
</style>
<g>
	<g>
		<path class="st0" d="M156.2,386.7c4.6,0,8.9,0.7,12.8,2.2c4,1.5,7.4,3.7,10.3,6.6c2.9,2.9,5.2,6.6,6.8,11
			c1.6,4.4,2.5,9.6,2.5,15.5c0,5.2-0.7,10-2,14.4c-1.3,4.4-3.4,8.2-6.1,11.4c-2.7,3.2-6.1,5.7-10.1,7.5c-4,1.8-8.8,2.8-14.3,2.8
			h-30.8v-71.4H156.2z M155.1,444.9c2.3,0,4.5-0.4,6.6-1.1c2.1-0.7,4-2,5.7-3.7c1.7-1.7,3-3.9,4-6.6c1-2.7,1.5-6.1,1.5-10
			c0-3.6-0.4-6.9-1-9.8c-0.7-2.9-1.9-5.4-3.5-7.4c-1.6-2.1-3.7-3.7-6.4-4.8c-2.6-1.1-5.9-1.7-9.8-1.7h-11.2v45H155.1z"/>
		<path class="st0" d="M238,386.7c3.2,0,6.1,0.5,8.6,1.5c2.6,1,4.8,2.5,6.6,4.3c1.8,1.8,3.2,3.9,4.2,6.3c1,2.4,1.4,4.9,1.4,7.6
			c0,4.2-0.9,7.8-2.6,10.9c-1.8,3.1-4.6,5.4-8.6,7v0.2c1.9,0.5,3.5,1.4,4.8,2.5c1.3,1.1,2.3,2.4,3.1,3.9c0.8,1.5,1.4,3.1,1.8,5
			c0.4,1.8,0.6,3.6,0.8,5.4c0.1,1.1,0.1,2.5,0.2,4c0.1,1.5,0.2,3.1,0.4,4.7c0.2,1.6,0.4,3.1,0.8,4.6c0.4,1.4,0.9,2.6,1.6,3.6h-15.7
			c-0.9-2.3-1.4-5-1.6-8.1c-0.2-3.1-0.5-6.1-0.9-9c-0.5-3.7-1.7-6.5-3.4-8.2c-1.7-1.7-4.6-2.6-8.5-2.6h-15.7v27.9h-15.7v-71.4H238z
			 M232.4,419c3.6,0,6.3-0.8,8.1-2.4c1.8-1.6,2.7-4.2,2.7-7.8c0-3.5-0.9-6-2.7-7.6c-1.8-1.6-4.5-2.4-8.1-2.4h-17.2V419H232.4z"/>
		<path class="st0" d="M324.2,452.6c-5.4,4.7-12.9,7.1-22.4,7.1c-9.7,0-17.1-2.3-22.5-7c-5.3-4.7-7.9-11.9-7.9-21.6v-44.4h15.7v44.4
			c0,1.9,0.2,3.8,0.5,5.7c0.3,1.9,1,3.5,2.1,4.9c1.1,1.4,2.6,2.6,4.5,3.5s4.4,1.4,7.6,1.4c5.6,0,9.5-1.3,11.6-3.8
			c2.1-2.5,3.2-6.4,3.2-11.8v-44.4h15.7v44.4C332.3,440.8,329.6,447.9,324.2,452.6z"/>
		<path class="st0" d="M367.9,386.7l16.7,49.1h0.2l15.8-49.1h22.1v71.4H408v-50.6h-0.2l-17.5,50.6h-12.1L360.7,408h-0.2v50.1h-14.7
			v-71.4H367.9z"/>
	</g>
	<g>
		<path class="st0" d="M583.3,471.4c-9.4,5.4-20,6-30.2,3.5c-17-4.1-33.7-9.7-50.7-14.2c-12.6-3.3-25.4-5.8-39.8-9
			c4.4-3.1,7.3-5.8,10.7-7.5c16.9-8.5,33.6-17.2,50.9-24.9c22.5-10,41.5-24.6,57.8-42.8c2.1-2.3,3.4-5.3,5.9-9.5
			c-7,0.6-11.9,1.3-16.8,1.4c-24.4,0.4-48.1-3.7-71.5-10.1c-12.7-3.5-25.8-5-38.1-0.6c-15.7,5.6-30.6,13.5-45.7,20.6
			c-1,0.5-1.2,2.4-2.7,5.4c7-2.2,12.3-4.4,17.8-5.4c18-3.3,36-3,53.9,1.1c17.8,4.1,35.7,7.5,55.4,11.6c-5.5,4.1-9.6,8.2-14.6,10.6
			c-24.8,11.9-49.9,23.3-74.8,34.9c-11.4,5.3-23.3,9.7-33.8,16.4c-8,5.1-14.2,13-21,20c-1.2,1.2-1,3.8-1.4,5.8
			c1.9,0.3,3.8,1,5.7,0.9c8.6-0.6,17.3-1.8,25.9-2c35.3-0.6,69.2,7.7,103.1,16.2c8.3,2.1,17.1,3.2,25.6,3
			c14.3-0.4,25.6-7.3,35.5-16.7c-1.3-1.8-2.2-4-3.4-5.9C585.7,473.4,584.4,472.4,583.3,471.4z"/>
	</g>
	<g>
		<path class="st0" d="M72.3,457c-21.8-1.8-43.1-7-64.4,1.2c-0.7-0.6-1.3-1.2-2-1.8c4-6.1,7.6-12.5,12-18.3
			c12.8-16.7,26.6-32.7,38.7-49.9C64,378,68.1,365.5,75.1,355c4.5-6.6,11.7-11.4,17.7-16.9c1.1,0.8,2.2,1.6,3.3,2.5
			c-1.5,4.5-2.2,9.7-4.8,13.5c-14.4,21.4-29.1,42.5-43.9,63.6c-4.5,6.5-9.6,12.6-15.8,20.8c14.9,0.7,27.7,1.5,40.6,1.7
			c1.2,0,3.6-3.2,3.6-5c0.2-8-0.3-15.9-0.4-23.9c0-2.1,0.1-5.3,1.3-6c6.7-3.8,13.6-7.3,20.7-9.9c1.2-0.4,6,3.9,6,6.1
			c0.2,10.3-0.3,20.7-1.4,31c-1,9.7,0.4,11.8,10.3,10.2c5.5-0.8,10.8-2.6,17-4.1c-1.5,9.3-8.6,11.9-15.1,14.6
			c-7.4,3.1-18,1.8-16.6,14.8c0.8,8.3,0.7,16.6,1.2,27.6c-4.7,1.9-12.1,5.4-19.8,7.7c-5.9,1.8-8.2-2.7-8.1-7.6
			c0.2-9.2,1-18.3,1.5-27.5C72.5,465,72.3,461.7,72.3,457z"/>
	</g>
</g>
</svg>
