<?xml version="1.0" encoding="utf-8"?>
<!-- Generator: Adobe Illustrator 19.0.0, SVG Export Plug-In . SVG Version: 6.00 Build 0)  -->
<svg version="1.1" id="Layer_1" xmlns="http://www.w3.org/2000/svg" xmlns:xlink="http://www.w3.org/1999/xlink" x="0px" y="0px"
	 viewBox="0 0 306 282" style="enable-background:new 0 0 306 282;" xml:space="preserve">
<style type="text/css">
	.st0{fill:#B2505F;}
</style>
<g>
	<path class="st0" d="M185.1,62.5c0.6,0.3,1.1,0.7,1.7,1c0.9,0.6,1.8,1.2,2.6,1.7c3.6,2.9,7.1,5.9,9.5,9.9c2.1,3.7,3.2,7.5,2.2,11.8
		c-0.3,1.4-0.1,2.9-0.6,4.3c-0.4,1.3-1.1,2.5-2.5,2.9c-0.6,0.2-0.8,0.5-0.9,1c-0.3,1.9-0.7,3.8-1,5.7c-0.1,0.6-0.2,1.1,0.1,1.6
		c1.3,1.7,1.1,3.5,0.2,5.3c-0.1,0.2-0.1,0.5-0.2,0.9c3.5-0.2,6.9-0.3,10.2-0.5c0.1,0,0.2,0,0.3,0c0.4,0,0.9,0,1.3,0
		c0.2,0,0.5,0,0.7,0c0.5,0,1.1,0,1.6,0c0.5,0,1.1,0,1.6,0c1.5,0,2.9,0,4.4,0c0.2,0,0.4,0,0.5,0c0.3,0,0.6,0,0.9,0c0,0,0.1,0,0.1,0
		l0.1,0c0.7,0,1.4,0,2.1,0c0.2,0,0.4,0,0.7,0c2.4,0.1,4.9,0.2,7.3,0.3c0.5,0,1,0,1.5,0c0.1,0,0.2,0,0.4,0c5.3,0.5,10.6,0.9,15.8,1.8
		c0.7,0.1,0.9,0,0.9-0.7c0-2.7,0-5.4,0-8.2c0-1.7-1.3-0.9-2-0.9c-1.4,0.1-1.7-0.4-1.6-1.7c0-1,0.4-1.3,1.3-1.2
		c0.9,0.1,1.6,0.1,1.6-1.2c0-1.1-0.4-1.5-1.4-1.3c-0.9,0.1-1.2-0.3-1.1-1.1c0.7-3.2-0.8-5.1-3.5-6.8c-2-1.2-3.8-1.3-6-1.4
		c-2.9-0.2-5.8-0.4-8.7-0.9c-1-0.2-2.1-0.3-3.1-0.6c-0.5-0.1-1.3-0.2-1.3-0.8c0-0.6,0.8-0.7,1.3-0.8c2.5-0.6,5-0.8,7.6-1
		c1.8-0.1,3.6-0.3,5.5-0.4c0.1,0,0.2,0,0.3,0c3.2,0.5,5.2-1.9,7.5-3.3c0.7-0.4,0.3-1.6,0.2-2.4c-0.1-1.2,0.2-1.8,1.5-1.6
		c1.2,0.2,1.5-0.4,1.4-1.5c-0.1-0.9-0.1-1.8,0-2.7c0.1-0.8-0.6-2,0.9-2.4c0.2,0,0.1-0.8,0.1-1.2c0-3.3,0-6.6,0-9.8
		c0-0.9,0-1.9,1.1-1.9c1.2,0,1.1,1,1.1,1.8c0,3.2,0,6.4,0,9.7c0,0.7-0.5,1.6,0.8,1.8c0.1,0,0.2,0.6,0.2,0.9c0,0.9,0.1,1.9,0,2.8
		c-0.1,1.5-0.3,3,2.1,2.5c0.8-0.2,0.8,0.5,0.7,1c-0.5,2.4,0.9,3.4,2.7,4.6c2.8,2.1,5.9,1.6,8.9,1.9c2.9,0.3,5.7,0.5,8.6,1
		c0.7,0.1,1.3,0.3,1.8,0.7c-0.2,0.3-0.5,0.6-0.7,1c-0.2,0-0.4,0-0.7,0.1c-0.2,0-0.4,0.1-0.7,0.1c-0.1,0-0.2,0.1-0.4,0.1
		c-0.2,0-0.4,0.1-0.6,0.1c-0.5,0-1-0.1-1.5,0.3c-0.6,0.1-1.2,0.1-1.9,0.2c-0.8-0.1-1.6,0-2.3,0.3c-0.7,0-1.3,0-2,0.1
		c-2.6,0.4-5.2-0.2-7.6,1.5c-2.7,1.8-4.5,3.5-3.8,7c0.2,0.8-0.2,1.2-1.1,1.1c-0.9-0.1-1.5-0.1-1.6,1.2c0,1.4,0.7,1.4,1.7,1.3
		c0.8-0.1,1.2,0.1,1.2,1.1c0.1,1.3-0.2,1.9-1.7,1.8c-0.7-0.1-1.9-0.6-1.8,1c0.1,2.9,0,5.9,0,8.8c0,0.4,0,1,0.6,1
		c0.6,0,0.3-0.6,0.4-0.9c0.1-0.4-0.1-0.8,0.6-0.8c0.6,0.1,0.5,0.5,0.5,0.9c-0.1,0.9,0,1.6,0.8,2.2c0.3,0.3,0.2,0.7,0,1.1
		c-1.2,2-1,6.8,0.3,8.9c0.3,0.4,0.3,0.8,0.3,1.3c0,3.9,0,7.9,0,11.8c0,0.5,0,1-0.5,1.3c-0.8,0.6-0.8,1.4-0.8,2.2
		c0,5.6,0.1,11.1,0,16.7c0,1.4,0.3,2,1.8,1.9c1.4-0.1,1.8,0.4,2,1.8c0.3,2.2,0.2,4.6,1.2,6.7c2.3,4.9,4.7,9.8,7.1,14.6
		c0.3,0.6,0.6,1.1,0.9,1.7c0,0.1,0.1,0.2,0.1,0.3c0.1,0.1,0.1,0.2,0.2,0.4c3.6,7.4,7.2,14.8,10.8,22.2l0,0c0.1,0.1,0.1,0.3,0.2,0.4
		c0.5,1,1,2,1.5,3.1c0.4,1,0.8,2,1.5,3c0.5,1.1,1.1,2.3,1.6,3.4c3.8,7.8,7.6,15.6,11.4,23.5c0.3,0.7,0.7,1.4,1,2.1
		c0.4,1,0.8,1.9,2.1,2c0.2,0,0.4,0.1,0.6,0.3c1.8,1.9,3.9,3.6,5.5,5.8c0.2,1.2,0,2.4-1.1,3c-1.3,0.7-2.4,0.3-3.4-0.8
		c-0.7-0.8-1.5-1.5-2.2-2.2c-1.5-1.5-2.3-3.3-3.2-5.2c-6.9-14.6-14.1-29.1-21.2-43.6c-0.5-1.1-1.1-1.4-2.3-1.4c-2.1,0.1-4.1,0-6.2,0
		c-0.8,0-1.2,0-1,1.1c0.8,4.1,1.2,8.4,2.5,12.4c0.8,2.5,1.5,5,2,7.6c0.3,1.6-0.3,2.7-1.6,3c-1.2,0.3-2.4-0.5-2.6-2.1
		c-0.4-2.4-1.5-4.7-0.7-7.3c0.3-1-0.3-2.3-0.5-3.4c-0.6-3.3-1.2-6.5-1.8-9.8c-0.1-0.5,0.1-1.5-1-1.4c-1.1,0.1-0.6,1.1-0.6,1.6
		c0,12.2,0,24.3,0,36.5c0,1.4-0.4,2-1.8,2.1c-1.3,0.1-2.6,0.6-3.9,0.9c-0.1-0.1-0.2-0.1-0.3-0.1c0-0.4-0.1-0.7-0.1-1.1
		c-0.4-1-1.1-1.1-2.1-0.2c-0.8,0.1-1.7,0.1-2.5,0.2c-0.1,0-0.2-0.1-0.4-0.1c-0.1-0.5-0.2-1-0.3-1.5c0.2-0.1,0.1-0.3,0-0.5
		c0-0.4,0-0.9,0-1.3c-0.5-0.8-1.4-0.7-2.2-0.9c-7.1-2-14.1-4-21.2-6c-0.9-0.3-1.6-0.3-2,0.7c-0.2,0.6-0.6,1.1-0.9,1.6
		c-1.3,2-1.3,2-3.3,1c-0.5-0.4-0.8-0.7-0.3-1.3c0.5-0.7,0.9-1.5,1.4-2.2c0.5-0.7,0.4-1-0.5-1.3c-1.2-0.4-1.6-0.2-1.5,1.1
		c0.1,0.9-0.1,1.8,0.1,2.6c0.2,1-0.3,1.3-1.1,1.4c-1.1,0-2.2,0-3.3,0c-0.4-0.2-0.9-0.1-1-0.6c0-5.5,0-11,0-16.6
		c-0.6,0.2-0.6,0.7-0.6,1.2c-0.8,7.9-1.6,15.8-2.3,23.7c-0.4,3.6-0.7,7.2-1,10.8c-0.1,0.8-0.1,1.5,0.4,2.2c0.5,0.7,0.3,1.6,0.2,2.4
		c-0.2,2-0.4,4.1-0.6,6.1c-0.2,1.6-1,2.6-2.3,2.5c-1.3-0.1-2.1-1.1-2-2.7c0.2-2.5,0.4-5,0.7-7.5c0.2-1.4,1.4-2.3,1.5-3.9
		c0.7-8.4,1.6-16.8,2.4-25.2c0.2-1.6,0.3-3.1,0.1-4.8c-2.6,3.9-5.3,7.9-7.9,11.8c-1.6,2.3-3.2,4.6-3.8,7.5c-0.1,0.7-0.5,0.8-1.1,0.8
		c-0.6,0-1.2,0.1-1.8,0.1c-0.7,0-1.9,0.6-2.1-0.1c-0.3-0.9-0.6-2.3,0.3-3.2c7.4-7.5,12-17,18.2-25.4c1.4-1.9,2.1-3.8,1.9-6.1
		c-0.1-1.7,0-3.4,0-5.1c-0.4-0.2-0.5,0.1-0.7,0.3c-6.3,6.9-12.7,13.8-18.9,20.8c-1.9,2.2-3.4,4.8-5.3,7.1
		c-4.3,5.4-9.6,9.7-15.9,12.7c-1.9,0.9-2.1,2.9-3,4.4c-0.4,0.6,0.6,0.9,1.1,1.3c5.9,4.7,11.8,9.3,17.7,13.9
		c3.9,3.1,7.8,6.2,11.8,9.3c0.3,0.2,0.6,0.7,0.9,0.7c3-0.1,4.4,2.5,6.5,3.9c1.1,0.7,1.2,1.9,0.4,2.9c-0.8,1.1-2,1.3-3.1,0.4
		c-1.5-1.1-3.3-2-4.2-3.5c-2.7-4.5-7.3-6.6-11-9.8c-3.7-3.2-7.7-6.1-11.6-9.2c-3-2.3-5.9-4.7-8.9-7c-0.7-0.6-1.1-0.5-1.6,0.3
		c-8.8,13.4-21.1,21.8-36.9,24.8c-12.4,2.3-24.4,0.5-35.9-4.6c-11.1-5-20.2-12.4-27.5-22.1c-0.8-1.1-1.3-1.3-2.5-0.5
		c-4,2.8-8.1,5.5-12.1,8.2c-0.5,0.3-1,0.6-1.1,1.3c-0.1,0.7-0.7,1.1-1.2,1.5c-1.3,0.8-2.5,1.7-3.7,2.5c-1.4,0.9-2.6,0.8-3.4-0.3
		c-0.7-1.1-0.4-2.3,0.9-3.3c1.2-0.9,2.5-1.7,3.7-2.5c0.6-0.4,1.3-0.9,2.2-0.6c0.5,0.2,0.8-0.1,1.2-0.4c4.3-2.9,8.6-5.8,12.9-8.6
		c0.7-0.5,0.8-0.8,0.3-1.5c-6.7-10.2-10.8-21.4-12.1-33.6c-0.1-0.9-0.3-1.1-1.2-1.1c-3.7,0.1-7.3,0.1-11-0.2c-0.8-0.1-1.2,0.2-1,1
		c0.9,4-1,6.2-4.6,7.3c-0.4,0.1-0.8,0.4-1.1,0.7c-0.4-0.1-0.7,0.2-1,0.4c-0.4,0.2-0.7,0.3-1.1,0.5c-0.8,0.3-1.4,0.5-0.8,1.8
		c0.7,1.6,0.5,3.6,0.1,5.4c-0.3,1.5-1.8,1.7-3.9,0.8c0,1.6-0.1,3.2,0,4.7c0.1,1.7-0.4,3.2-1.3,4.7c-2.6,4.3-5.1,8.6-7.6,12.8
		c-0.6,1-0.8,1.9-0.4,3.3c0.7,2.4,0.4,5.1,0.1,7.6c-0.1,1.1-1.1,1.6-2.2,1.5c-1.3-0.1-1.9-0.9-2-2.1c-0.1-2-0.1-4-0.1-6
		c0-0.3,0-0.7,0-1c2-2.7,2.9-6,4.9-8.7c0-0.1,0.1-0.2,0.1-0.3c0.7-0.8,1.2-1.7,1.6-2.7l0,0c0.1-0.1,0.1-0.2,0.2-0.3
		c0.1-0.1,0.1-0.2,0.2-0.3c0.3-0.3,0.5-0.6,0.6-1c1.2-1.6,2.1-3.4,3.1-5.1c0.3-0.5,0.4-1,0.4-1.6c-0.2-7.5-0.4-15-0.6-22.5
		c-0.1-3.3-0.2-3.3-3.5-3.9c-0.8-0.3-1.6-0.6-2.3-0.8c-0.2-0.1-0.4-0.1-0.6-0.2l0,0c-0.4-0.2-0.7-0.3-1.1-0.5
		c-0.5-0.2-0.9-0.5-1.4-0.7c-1.4-1.2-3.2-2.1-2.4-4.5c0.2-0.5-0.4-0.7-0.8-0.9c-0.1-0.1-0.1-0.2-0.2-0.3c-1.5-2.4-1.4-3.3,0.6-5.7
		c0.1,0,0.1,0,0.1-0.1c0.5-0.4,1.1-0.6,1.1-1.5c-0.2-7-0.3-14-0.7-21c0-0.6,0-1.1,0-1.7c0-3,0.1-6-0.3-9c0-0.4,0-0.9-0.1-1.3
		c0-0.7,0-1.3,0-2c0-1.5-0.1-2.9-0.1-4.4c0.1-1,0.1-2.1-0.2-3.1c0-1-0.1-2.1,0-3.1c0.1-1.6-0.1-2.8-1.9-3.4
		c-0.9-0.3-1.5-1.1-1.4-2.2c0.3-0.7,0.5-1.4,0.6-2.2c0.1-0.1,0.1-0.2,0.1-0.3c0.3-0.9,0.6-1.8,0.9-2.7c0.3-0.6,1-0.7,1.4-1
		c1.1-0.1,2-0.6,3-0.9c16.9-3.5,34-3.7,51.2-3.3c1.6,0,3.1,0.1,4.7,0.2c-0.2-0.7-0.9-0.7-1.4-0.9c-5.5-2.6-10.7-5.7-15-10
		c-3.3-3.2-6-6.8-6-11.6c0-0.5-0.2-1-0.3-1.4c-0.1,0-0.3-0.1-0.3,0c-0.5,0.4-0.8,1.3-1.6,0.9c-0.7-0.4-0.6-1.2-0.6-1.9
		c0-1,0.3-2,0.8-2.9c0.8-1.6,1.7-3.2,2.5-4.9c0.7-1.3,1.7-2.5,0.3-4c-0.4-0.4-0.1-0.8,0.1-1.3c1.2-3.5,2.3-6.9,3.5-10.4
		c0.3-0.8,0.6-1.6,1.7-1.3c0.8,0.2,0.8-0.4,0.9-0.9c0.9-2.4,2.2-4.8,2-7.5c0-0.6,0.5-0.8,0.9-1.2c1-1.1,1.8-2.2,3.5-1.3
		c0,0,0.2-0.2,0.3-0.4c4.6-5.7,10.9-7.8,17.8-8.6c13.2-1.5,25.4,1.8,36.7,8.5c0.5,0.3,0.8,0.7,1.6,0.7c0-0.7,0-1.4,0-2.1
		c0-5.3,0-10.7,0.1-16c0-1.1-0.3-1.8-1.1-2.6c-6.5-5.8-12.9-11.6-19.3-17.4c-0.9-0.8-1.9-1.6-1.6-3.1c0.2-0.9-0.5-0.9-1.1-0.9
		c-5.8,0.1-11.7-0.3-17.4-1c-4.5-0.6-8.9-1.4-13.1-3c-0.8-0.3-1.6-0.7-2.4-1.2c-2.7-1.7-2.7-3.7,0-5.4c1.9-1.2,4-1.9,6.2-2.4
		c7.4-1.9,15-2.6,22.6-2.7c2.1,0,2,0,1.1-1.8c-0.4-0.8-1.7-1.9-0.3-2.7c1.4-0.8,1.6,0.9,2.2,1.6c0.2,0.2,0.3,0.4,0.8,1.1
		c0.9-1.1,1.7-2,2.5-3c0.5-0.6,1.1-0.8,1.7-0.2c0.6,0.6,0.4,1.2-0.2,1.7c-1,0.9-1.9,1.8-2.9,2.7c0.7,0.7,1.4,0.5,1.9,0.5
		c7.7,0.1,15.4,0.8,22.9,2.7c1.8,0.5,3.5,1.1,5.1,1.9c1.2,0.6,2.3,1.4,3,2.5c0,0.4,0,0.9,0.1,1.3c-1,1.8-2.7,2.7-4.6,3.4
		c-6.2,2.4-12.7,3-19.2,3.6c-1.7,0.1-3.3,0.1-5,0.3c-0.6,0.1-1.4-0.5-1.7,0.5c-0.2,0.8,0.2,1.3,0.8,1.8c2.1,1.8,4,3.6,6.1,5.5
		c4.6,4.2,9.3,8.4,14,12.6c0.9,0.8,1.2,1.6,1.2,2.7c-0.1,6.5-0.1,13-0.2,19.5c0,0.9,0.2,1.6,1,2.1c1.9,1.2,3.5,2.8,5,4.4
		c1.3,1.5,2.6,3.2,3.6,5c0,0.1,0.1,0.2,0.1,0.3c0.1,0.2,0.3,0.5,0.4,0.7c0.5,1.1,0.8,2.3,1.7,3.4c0.5-1.8,0.9-3.5,1.4-5.1
		c0.4-0.9,0.9-1.8,0.8-2.8c0,0,0,0,0,0c0.9-1.1,1.7-2.3,2.6-3.4c0.1-0.1,0.2-0.2,0.3-0.3c1.7-1,2.5-2.6,2.5-4.5c0-3,0.9-5.6,3.3-7.6
		c0.6-0.5,1.3-1.3,1.9,0.1c0.2,0.5,0.5,0.2,0.8,0c1.5-1.1,3.2-1.9,4.9-2.7l0,0c4.1-1.4,8.3-1.9,12.6-2.1c0.2,0,0.4,0,0.7,0
		c0.4,0,0.9,0,1.3,0c0.2,0,0.4,0,0.6,0c5.6,0.6,11.1,1.7,16.3,3.7c0.5,0.2,1.1,0.4,1.6,0.6c0.3,0.4,0.7,0.3,1.1,0.3c0,0,0,0,0,0
		c0.2,0.4,0.6,0.6,1,0.6c0.9,0.5,1.8,0.9,2.7,1.4C184.6,62.4,184.8,62.5,185.1,62.5z M237.4,154.1c-0.2,0.1-0.4,0.1-0.6,0.2
		c-4.3,0.1-8.6-0.4-12.9-1c-1-0.1-1.6,0.1-1.7,1c-0.2,1.6-1.2,1.7-2.5,1.4c-0.4-0.1-1.1-0.5-1.3,0.1c-0.6,2-2.1,1.4-3.5,1.1
		c0,0.5,0,0.8,0,1.1c0,12.7,0,25.4,0,38.1c0,0.2,0,0.4,0,0.7c0,0.8,0.6,1.3,1.2,1.5c0.4,0.2,0.7-0.6,1-1c2.3-3.4,4.5-6.7,6.8-10.1
		c3.7-5.6,7.4-11.2,11.2-16.7c0.1-0.2,0.3-0.4,0.4-0.6c1.2-1.5,2.3-3.1,3.3-4.8c0.7-1.1,1.4-2.1,2.1-3.2l0,0c0.5-0.5,0.8-1,0.9-1.7
		c0.2-2.8,0.2-2.8,3.1-2.7c0.2,0,0.3,0,0.5,0c0.8,0.1,1.1-0.2,1.1-1c0-2.2-0.1-4.4,0-6.7c0-1-0.3-0.9-1.1-0.8c-2.8,0.5-5.6,1-6.8,4
		C238,153.5,237.6,153.8,237.4,154.1z M55.1,98.5c-1.6,0.1-3,0.8-4.4,1.5c-4,2.2-5.1,5.7-3,9.8c1.5,2.9,3.7,5.2,6.3,7.1
		c0.3,0.3,0.6,0.6,1,0.9c14.2,9.8,29.9,14.6,47.3,13.9c3.3-0.1,6.6-0.9,9.5-2.8c2.8-1.8,3.9-4.6,3.1-7.6c-0.4-1.4-1.1-2.7-1.9-3.8
		c-2.3-3.2-5.3-5.7-8.6-7.8c-11.1-7.1-23.4-11-36.5-12.2c-3.9-0.4-7.9-0.4-11.7,0.6C55.7,98.2,55.4,98.2,55.1,98.5z M162.8,102.3
		c-0.4-0.1-0.7-0.2-1.1-0.4c-7.3-2.4-14.8-3.8-22.6-3.1c-3.2,0.3-6.4,1-9,3c-2.4,1.8-3.3,4.3-2.4,7.2c0.8,2.8,2.5,4.9,4.6,6.8
		c8.4,7.6,18.5,11.6,29.4,13.6c0.6,0.2,1.3,0.4,2,0.3c0.5,0.1,1.1,0.2,1.6,0.3c1.9,0.2,3.8,0.5,5.7,0.4c0.8,0,1.6,0,2.3,0
		c3.7-0.1,7.3-0.7,10.5-2.7c3.2-2,4.2-5.2,2.6-8.6c-1.6-3.7-4.4-6.4-7.8-8.7c-0.5-0.6-1.2-1-1.9-1.3c-0.4-0.5-0.9-0.8-1.4-0.9
		c-1.5-1.1-3.2-2-5-2.7c-1-0.7-2.2-1.1-3.4-1.6c-0.1,0-0.2-0.1-0.3-0.1c-1.2-0.7-2.4-1.1-3.7-1.4C163,102.4,162.9,102.3,162.8,102.3
		z M241.8,196.8c-0.5-0.4-1.2-0.3-1.8-0.3c-5.4-0.9-10.8-1.7-16.2-2.6c-0.8-0.1-1.1,0.4-1.4,0.9c-1.2,1.7-2.3,3.4-3.4,5.1
		c-0.5,0.7-0.5,1.1,0.1,1.8c9.5,9.4,19,18.8,28.5,28.2c0.7,0.7,1.2,0.7,2.1,0.4c1-0.3,0.7-1,0.7-1.6c0-7.9,0-15.9,0-23.8
		c0-3,0-3.1-3-3c-1,0-1.4-0.1-1.4-1.3c0-3.4,0-3.4-3.5-3.8C242.3,196.8,242.1,196.8,241.8,196.8z M159.1,178.5
		c-0.2-0.6-0.5-1.2-1-1.6c-1.7-3.3-3.9-6.2-6.3-9c-11.7-13.6-26.1-22.2-44.4-22.8c-17.1-0.6-31,6.2-41.3,19.8
		c-8.8,11.7-12.2,25.1-11,39.5c1.7,22.7,11.9,40.9,30.7,53.9c11.5,8,24.4,11.7,38.5,9.7c17.3-2.4,29.9-11.8,37.8-27.2
		c6.2-12,7.7-24.9,5.6-38.2C166.3,194.1,163.5,186,159.1,178.5z M193.7,211.8c5.2-5.7,10.3-11.3,15.5-17c0.3-0.4,0.4-0.8,0.4-1.2
		c0-8.7,0-17.4,0-26.1c0-0.9-0.3-1-1.1-0.8c-5.5,0.9-11.1,1.1-16.7,1.4c-1.4,0.1-1.4,0.4-0.9,1.5c3.1,6.9,4.9,14.2,5.3,21.8
		C196.4,198.4,195.6,205.1,193.7,211.8z M176.9,144c-1.5-0.5-1.8-0.7-1.8-1.3c-0.1-1,0.7-1.3,1.4-1.7c0.4-0.2,0.9-0.4,1.4-0.5
		c0.7-0.1,1-0.5,1-1.2c0.1-2.8,0.1-2.8-2.6-3.7c-0.4-0.1-0.7-0.3-1.1-0.3c-0.6-0.1-1-0.5-1-1.1c0-1-0.6-1-1.3-0.9
		c-12.4,0.3-23.9-3-34.5-9.4c-3.4-2-6.4-4.5-9.2-7.3c0.4,4.2-0.6,8.4,0.4,12.6c0.4,1.9,0.6,3.4,2.3,4.4c0.1,0.1,0.3,0.2,0.3,0.4
		c0.5,1.1,1.4,1.2,2.5,1.1c13.5-1.2,25.6,2.6,36.6,10.4c0.8,0.6,1.6,1.2,2.4,1.8c1,0.7,1.8-0.1,2.7-0.3c0.4-0.1,0.4-0.4,0.2-0.6
		C175.8,145.3,176.5,144.7,176.9,144z M83.7,133c-1.7-0.4-2.9-0.7-4.1-1.1c-4.4-1.1-8.6-2.6-13.3-2.7c-12.6-0.2-25.1-0.2-37.6,0.7
		c-5.8,0.4-11.6,0.8-17.3,2.3c-0.9,0.2-2.4,0.3-2.4,1.4c0,1.1,1.5,1.1,2.4,1.3c5.8,1.3,11.7,1.5,17.5,1.6c14.5,0.4,29,0.2,43.4-1.3
		C76.1,134.8,79.8,134.4,83.7,133z M225.2,190.7c0.2,0.1,0.4,0.2,0.5,0.2c6.4,1,12.8,2,19.2,3c1.2,0.2,1.1-0.5,1.1-1.2
		c0-9.2,0-18.4,0-27.7c0-0.9-0.2-1.3-1.2-1.7c-1-0.4-1.4,0.1-1.8,0.8c-2,3-4.1,6.1-6.1,9.1C233,179.1,229.1,184.9,225.2,190.7z
		 M114.3,130.3c-8.6,5.1-17.5,4.4-26.4,3.4c0.1,1.4,1.1,2.7,0.4,3.8c-0.8,1.3-0.6,2.7-0.8,4c-0.1,0.9,0.2,1,1,0.7
		c7.6-2.4,15.3-3.1,23.1-2.2c0.8,0.1,1.1-0.2,1.1-1c0-1.5,0-3,0-4.5c0-0.4-0.1-1,0.2-1.1C115.2,133.2,113.5,131.6,114.3,130.3z
		 M228.3,215c-2.1,3.4-4,6.7-6,9.8c-0.7,1.1-0.3,1.3,0.7,1.6c5.7,1.6,11.4,3.2,17.1,4.7c1.8,0.5,3.5,1.2,5.2,1.3
		C239.6,226.7,234,220.9,228.3,215z M214.7,215C214.7,215,214.7,215,214.7,215c0,2.2,0,4.3,0,6.5c0,2.6,0,2.6,2.6,3.3
		c0.8,0.2,1.3,0.1,1.7-0.7c2-3.5,4.1-6.9,6.2-10.4c0.5-0.8,0.4-1.2-0.2-1.8c-2.3-2.2-4.5-4.4-6.8-6.6c-1.8-1.7-2.6-1.5-3.4,0.9
		c-0.1,0.4-0.1,0.9-0.1,1.3C214.7,210,214.7,212.5,214.7,215z M267.8,195.5c-2.3-4.8-4.6-9.5-6.9-14.1c-1.5-3-3-6.1-4.5-9.1
		c-0.2-0.3-0.3-0.9-0.7-0.7c-0.5,0.2-0.2,0.7-0.1,1.1c0.3,1.3,0.6,2.7,0.8,4.1c1.1,5.9,2.2,11.8,3.3,17.7c0.1,0.7,0.3,1.2,1.2,1.2
		C263.1,195.5,265.3,195.5,267.8,195.5z M22.1,218.5c0.3,0.1,0.5,0.2,0.8,0.3c0.9-3.6,4.3-3.7,6.6-5.2c0.2-0.1,0.4-0.2,0.6-0.3
		c2.7-0.7,3.5-2.4,3.1-5.1c-0.1-0.9-0.3-1.2-1.2-1.3c-2.9-0.2-5.8-0.5-8.7-1.1c-0.9-0.2-1.1,0.2-1.1,1
		C22.1,210.7,22.1,214.6,22.1,218.5z M252.1,168.4c-0.1,0-0.2,0-0.3,0c0,7.7,0,15.3,0,23c0,4.3,0,4.3,4.3,4.2c0.8,0,1-0.1,0.8-1
		c-0.6-2.7-1-5.4-1.5-8.2C254.3,180.3,253.2,174.4,252.1,168.4z M250.7,118.5c0-0.8,0-1.6,0-2.3c0-0.4,0.3-1-0.4-1
		c-0.6,0-0.8,0.4-0.8,1c0,1.7,0,3.4,0,5.2c0,0.3-0.2,0.8,0.5,0.8c0.6,0,0.8-0.3,0.8-0.8C250.7,120.4,250.7,119.5,250.7,118.5z"/>
	<path class="st0" d="M215.4,232.2c0,0,0.1,0,0.1,0.1C215.5,232.2,215.5,232.2,215.4,232.2C215.4,232.2,215.4,232.2,215.4,232.2z"/>
	<path class="st0" d="M260.3,75.6c0-0.1-0.1-0.2-0.1-0.3c0,0,0.1-0.1,0.2-0.1c0,0,0.1,0.1,0,0.1C260.4,75.4,260.3,75.5,260.3,75.6z"
		/>
	<path class="st0" d="M217,108c-0.2,0-0.4,0-0.5,0C216.6,108,216.8,108,217,108z"/>
	<path class="st0" d="M137.2,50.3c0-0.1,0-0.1,0-0.2c0,0,0.1,0,0.1,0C137.3,50.1,137.3,50.2,137.2,50.3z"/>
	<path class="st0" d="M125.4,21.8c-0.1,0.1-0.2,0.2-0.3,0.3C125.2,22.1,125.3,21.9,125.4,21.8z"/>
	<path class="st0" d="M199.7,74.9c0,0-0.1,0.1-0.1,0.1c0,0-0.1-0.1-0.1-0.1c0,0,0.1-0.1,0.1-0.1C199.6,74.8,199.7,74.8,199.7,74.9z"
		/>
	<path class="st0" d="M206.8,108.1c-0.1,0-0.2,0-0.3,0C206.5,108,206.6,108,206.8,108.1z"/>
	<path class="st0" d="M275.9,205.8c0.1,0,0.2,0,0.4,0c0,0.1-0.1,0.2-0.1,0.4C276.1,206,276,205.9,275.9,205.8z"/>
	<path class="st0" d="M16.1,239.1c0.1-0.1,0.1-0.2,0.2-0.3C16.2,239,16.1,239,16.1,239.1z"/>
	<path class="st0" d="M264.9,183.2c0.1,0,0.2,0,0.2,0c0,0.1,0,0.2,0,0.3C265,183.4,264.9,183.3,264.9,183.2z"/>
	<path class="st0" d="M233,155.6c0,0-0.1,0-0.1,0c0,0,0-0.1,0-0.1c0,0,0.1,0,0.1,0C233,155.5,233,155.5,233,155.6z"/>
	<path class="st0" d="M239.3,161.9c0,0-0.1,0-0.1,0c0,0,0-0.1,0-0.1c0,0,0.1,0,0.1,0C239.3,161.8,239.3,161.9,239.3,161.9z"/>
</g>
</svg>
